<?xml version="1.0" encoding="UTF-8" standalone="no"?>
<!DOCTYPE svg PUBLIC "-//W3C//DTD SVG 1.1//EN" "http://www.w3.org/Graphics/SVG/1.1/DTD/svg11.dtd">
<svg version="1.1" xmlns="http://www.w3.org/2000/svg" xmlns:xlink="http://www.w3.org/1999/xlink" preserveAspectRatio="xMidYMid meet" viewBox="0 0 592 592" width="70" height="70"><defs><path d="M565.77 17C571.42 17 576 21.58 576 27.23C576 137.18 576 456.81 576 566.77C576 572.42 571.42 577 565.77 577C455.81 577 136.18 577 26.23 577C20.58 577 16 572.42 16 566.77C16 456.81 16 137.18 16 27.23C16 21.58 20.58 17 26.23 17C136.18 17 455.81 17 565.77 17Z" id="a3G9n5C7jE"></path><path d="M414.53 348.61L414.99 348.74L415.46 348.88L415.92 349.02L416.38 349.17L416.84 349.32L417.29 349.47L417.75 349.63L418.2 349.79L418.65 349.96L419.11 350.12L419.56 350.29L420 350.47L420.45 350.65L420.89 350.83L421.34 351.01L421.78 351.2L422.22 351.39L422.66 351.59L423.09 351.79L423.53 351.99L423.96 352.19L424.39 352.4L424.82 352.61L425.25 352.83L425.67 353.05L426.1 353.27L426.52 353.49L426.94 353.72L427.36 353.95L427.78 354.18L428.19 354.42L428.61 354.66L429.02 354.91L429.43 355.15L429.84 355.4L430.24 355.66L430.65 355.91L452.2 339.56L467.82 356.04L452.51 379.05L452.75 379.48L452.98 379.91L453.22 380.34L453.45 380.77L453.68 381.2L453.9 381.64L454.13 382.08L454.35 382.52L454.56 382.96L454.78 383.4L454.99 383.85L455.19 384.29L455.4 384.74L455.6 385.19L455.8 385.64L455.99 386.1L456.19 386.55L456.37 387.01L456.56 387.47L456.74 387.93L456.92 388.39L457.1 388.85L457.27 389.31L457.44 389.78L457.61 390.25L457.77 390.72L457.93 391.19L458.09 391.66L458.24 392.14L458.39 392.61L458.54 393.09L458.69 393.57L458.83 394.05L458.96 394.53L459.1 395.01L459.23 395.5L459.36 395.98L459.48 396.47L459.6 396.96L459.72 397.45L486 401.99L486 425.28L459.71 430.13L459.59 430.62L459.47 431.11L459.35 431.6L459.22 432.09L459.09 432.58L458.96 433.06L458.82 433.55L458.68 434.03L458.53 434.51L458.39 434.99L458.24 435.46L458.08 435.94L457.93 436.41L457.77 436.89L457.6 437.36L457.44 437.83L457.27 438.29L457.1 438.76L456.92 439.22L456.74 439.69L456.56 440.15L456.37 440.61L456.18 441.06L455.99 441.52L455.8 441.97L455.6 442.42L455.4 442.87L455.19 443.32L454.99 443.77L454.78 444.21L454.56 444.66L454.35 445.1L454.13 445.54L453.9 445.97L453.68 446.41L453.45 446.84L453.22 447.28L452.98 447.71L452.75 448.13L452.51 448.56L468.07 471.34L452.46 487.83L430.66 471.7L430.26 471.95L429.85 472.21L429.44 472.46L429.03 472.7L428.62 472.95L428.21 473.19L427.79 473.43L427.38 473.66L426.96 473.89L426.54 474.12L426.11 474.35L425.69 474.57L425.26 474.79L424.84 475L424.41 475.21L423.98 475.42L423.54 475.63L423.11 475.83L422.67 476.03L422.24 476.23L421.8 476.42L421.36 476.61L420.91 476.79L420.47 476.98L420.02 477.16L419.58 477.33L419.13 477.5L418.68 477.67L418.23 477.84L417.78 478L417.32 478.16L416.87 478.31L416.41 478.46L415.95 478.61L415.49 478.75L415.03 478.89L414.57 479.03L414.1 479.16L413.64 479.29L413.17 479.42L408.53 507L386.45 507L382.12 479.49L381.66 479.37L381.19 479.24L380.72 479.11L380.26 478.98L379.79 478.84L379.33 478.7L378.87 478.55L378.41 478.4L377.96 478.25L377.5 478.09L377.05 477.94L376.59 477.77L376.14 477.61L375.69 477.44L375.24 477.26L374.79 477.09L374.35 476.91L373.9 476.73L373.46 476.54L373.02 476.35L372.58 476.16L372.14 475.96L371.71 475.76L371.27 475.56L370.84 475.35L370.41 475.14L369.98 474.93L369.55 474.71L369.12 474.49L368.7 474.27L368.28 474.04L367.85 473.81L367.44 473.58L367.02 473.34L366.6 473.1L366.19 472.86L365.77 472.61L365.36 472.36L364.95 472.11L364.55 471.85L342.91 487.83L327.29 471.34L342.61 448.75L342.37 448.32L342.12 447.88L341.88 447.45L341.65 447.02L341.41 446.58L341.18 446.14L340.96 445.7L340.73 445.25L340.51 444.81L340.29 444.36L340.08 443.91L339.87 443.46L339.66 443.01L339.45 442.56L339.25 442.1L339.05 441.64L338.86 441.18L338.66 440.72L338.48 440.26L338.29 439.79L338.11 439.32L337.93 438.86L337.75 438.38L337.58 437.91L337.41 437.44L337.24 436.96L337.08 436.49L336.92 436.01L336.77 435.52L336.62 435.04L336.47 434.56L336.32 434.07L336.18 433.58L336.04 433.1L335.9 432.6L335.77 432.11L335.64 431.62L335.52 431.12L335.4 430.63L335.28 430.13L309.34 425.28L309.34 401.99L335.3 397.44L335.41 396.94L335.54 396.44L335.66 395.95L335.79 395.45L335.92 394.96L336.06 394.47L336.2 393.98L336.34 393.49L336.49 393.01L336.64 392.52L336.79 392.04L336.95 391.56L337.11 391.08L337.27 390.6L337.44 390.13L337.61 389.66L337.78 389.18L337.95 388.71L338.13 388.25L338.32 387.78L338.5 387.31L338.69 386.85L338.88 386.39L339.08 385.93L339.28 385.47L339.48 385.02L339.68 384.56L339.89 384.11L340.1 383.66L340.32 383.21L340.53 382.77L340.75 382.32L340.98 381.88L341.2 381.44L341.43 381L341.67 380.56L341.9 380.13L342.14 379.69L342.38 379.26L342.63 378.83L327.51 356.04L343.13 339.56L364.62 355.74L365.03 355.49L365.43 355.24L365.84 354.99L366.25 354.74L366.67 354.5L367.08 354.27L367.5 354.03L367.92 353.8L368.34 353.57L368.76 353.35L369.18 353.12L369.61 352.91L370.04 352.69L370.47 352.48L370.9 352.27L371.33 352.06L371.76 351.86L372.2 351.66L372.64 351.47L373.08 351.27L373.52 351.08L373.96 350.9L374.41 350.72L374.85 350.54L375.3 350.36L375.75 350.19L376.2 350.02L376.65 349.86L377.11 349.69L377.56 349.54L378.02 349.38L378.48 349.23L378.94 349.08L379.4 348.94L379.86 348.8L380.33 348.66L380.79 348.53L381.26 348.4L381.73 348.27L382.2 348.15L386.45 320.64L408.53 320.64L413.13 348.22L413.6 348.35L414.06 348.48L414.06 348.48L414.53 348.61ZM108.08 368.8L109.23 371.74L110.62 374.64L112.25 377.5L114.11 380.31L116.2 383.07L118.5 385.78L121.03 388.43L123.76 391.03L126.7 393.58L129.84 396.06L133.18 398.47L136.71 400.83L140.42 403.11L144.31 405.33L148.38 407.47L152.61 409.53L157.02 411.52L161.58 413.43L166.29 415.26L171.16 417L176.17 418.66L181.32 420.22L186.61 421.7L192.02 423.08L197.56 424.36L203.21 425.55L208.98 426.63L214.86 427.61L220.84 428.48L226.92 429.24L233.09 429.9L239.35 430.44L245.7 430.86L252.12 431.17L258.62 431.35L265.18 431.42L265.56 431.41L265.95 431.41L266.33 431.41L266.72 431.41L267.1 431.41L267.49 431.41L267.87 431.4L268.26 431.4L268.64 431.4L269.02 431.39L269.41 431.39L269.79 431.38L270.17 431.38L270.56 431.37L270.94 431.36L271.32 431.36L271.7 431.35L272.09 431.34L272.47 431.33L272.85 431.32L273.23 431.31L273.61 431.3L273.99 431.29L274.38 431.28L274.76 431.27L275.14 431.26L275.52 431.25L275.9 431.24L276.28 431.23L276.66 431.21L277.04 431.2L277.42 431.18L277.8 431.17L278.17 431.16L278.55 431.14L278.93 431.12L279.31 431.11L279.69 431.09L280.07 431.08L280.44 431.06L280.61 431.93L280.81 432.8L281.02 433.66L281.26 434.51L281.52 435.35L281.8 436.18L282.1 436.99L282.43 437.8L282.77 438.6L283.14 439.38L283.52 440.16L283.93 440.91L284.35 441.66L284.8 442.4L285.26 443.11L285.74 443.82L286.24 444.51L286.76 445.19L287.29 445.85L287.85 446.49L288.42 447.12L289 447.73L289.61 448.32L290.22 448.9L290.86 449.46L291.51 450L292.17 450.52L292.85 451.02L293.55 451.5L294.25 451.96L294.98 452.4L295.71 452.82L296.46 453.22L297.22 453.6L298 453.95L298.78 454.28L299.58 454.59L300.39 454.88L301.21 455.14L302.04 455.38L301.64 456.11L301.26 456.85L300.9 457.59L300.56 458.34L300.24 459.1L299.94 459.87L299.67 460.64L299.41 461.41L299.18 462.19L298.97 462.98L298.77 463.77L298.6 464.56L298.45 465.35L298.32 466.15L298.21 466.95L298.12 467.75L298.05 468.56L298.01 469.36L297.98 470.17L297.97 470.97L297.98 471.78L298.01 472.58L298.06 473.38L298.13 474.18L298.22 474.98L298.33 475.78L298.46 476.58L298.61 477.37L298.78 478.16L298.97 478.94L299.17 479.72L299.4 480.5L299.64 481.27L299.91 482.03L300.19 482.79L300.49 483.54L300.81 484.29L301.15 485.03L301.5 485.76L301.88 486.48L300.99 486.58L300.1 486.68L299.21 486.77L298.32 486.86L297.43 486.95L296.54 487.04L295.64 487.12L294.74 487.21L293.84 487.29L292.94 487.36L292.04 487.44L291.13 487.51L290.23 487.59L289.32 487.65L288.41 487.72L287.5 487.79L286.59 487.85L285.68 487.91L284.76 487.96L283.84 488.02L282.92 488.07L282 488.12L281.08 488.17L280.16 488.21L279.23 488.25L278.31 488.29L277.38 488.33L276.45 488.36L275.52 488.39L274.59 488.42L273.65 488.45L272.72 488.47L271.78 488.49L270.84 488.51L269.9 488.53L268.96 488.54L268.02 488.55L267.07 488.56L266.13 488.56L265.18 488.56L258.62 488.5L252.12 488.32L245.7 488.01L239.35 487.59L233.09 487.05L226.92 486.39L220.84 485.63L214.86 484.75L208.98 483.77L203.21 482.69L197.56 481.51L192.02 480.22L186.61 478.84L181.32 477.37L176.17 475.8L171.16 474.15L166.29 472.4L161.58 470.58L157.02 468.67L152.61 466.68L148.38 464.61L144.31 462.47L140.42 460.25L136.71 457.97L133.18 455.62L129.84 453.2L126.7 450.72L123.76 448.17L121.03 445.57L118.5 442.92L116.2 440.21L114.11 437.45L112.25 434.64L110.62 431.79L109.23 428.89L108.08 425.95L107.18 422.97L106.53 419.95L106.13 416.9L106 413.82L106 356.67L106.13 359.76L106.53 362.81L107.18 365.82L107.18 365.82L108.08 368.8ZM392.55 381.78L391.32 382.03L390.09 382.33L388.89 382.68L387.71 383.07L386.55 383.52L385.41 384.02L384.29 384.56L383.2 385.14L382.14 385.77L381.1 386.45L380.08 387.16L379.1 387.91L378.15 388.71L377.22 389.54L376.33 390.41L375.48 391.31L374.65 392.25L373.86 393.23L373.11 394.23L372.4 395.27L371.72 396.34L371.08 397.43L370.49 398.56L369.93 399.71L369.42 400.89L368.95 402.09L368.52 403.31L368.15 404.56L367.81 405.83L367.53 407.12L367.3 408.42L367.11 409.75L366.98 411.09L366.9 412.45L366.87 413.82L366.9 415.19L366.98 416.55L367.11 417.9L367.3 419.22L367.53 420.53L367.81 421.82L368.15 423.09L368.52 424.34L368.95 425.57L369.42 426.77L369.93 427.95L370.49 429.1L371.08 430.22L371.72 431.32L372.4 432.39L373.11 433.42L373.86 434.43L374.65 435.4L375.48 436.34L376.33 437.24L377.22 438.11L378.15 438.94L379.1 439.74L380.08 440.49L381.1 441.2L382.14 441.87L383.2 442.5L384.29 443.09L385.41 443.63L386.55 444.12L387.71 444.57L388.89 444.97L390.09 445.32L391.32 445.61L392.55 445.86L393.81 446.05L395.08 446.19L396.37 446.28L397.67 446.31L398.97 446.28L400.26 446.19L401.53 446.05L402.79 445.86L404.03 445.61L405.26 445.32L406.46 444.97L407.64 444.57L408.8 444.12L409.94 443.63L411.06 443.09L412.15 442.5L413.22 441.87L414.26 441.2L415.27 440.49L416.25 439.74L417.2 438.94L418.13 438.11L419.02 437.24L419.87 436.34L420.7 435.4L421.49 434.43L422.24 433.42L422.95 432.39L423.63 431.32L424.26 430.22L424.86 429.1L425.41 427.95L425.93 426.77L426.39 425.57L426.82 424.34L427.2 423.09L427.53 421.82L427.81 420.53L428.04 419.22L428.23 417.9L428.36 416.55L428.44 415.19L428.47 413.82L428.44 412.45L428.36 411.09L428.23 409.75L428.04 408.42L427.81 407.12L427.53 405.83L427.2 404.56L426.82 403.31L426.39 402.09L425.93 400.89L425.41 399.71L424.86 398.56L424.26 397.43L423.63 396.34L422.95 395.27L422.24 394.23L421.49 393.23L420.7 392.25L419.87 391.31L419.02 390.41L418.13 389.54L417.2 388.71L416.25 387.91L415.27 387.16L414.26 386.45L413.22 385.77L412.15 385.14L411.06 384.56L409.94 384.02L408.8 383.52L407.64 383.07L406.46 382.68L405.26 382.33L404.03 382.03L402.79 381.78L401.53 381.59L400.26 381.45L398.97 381.36L397.67 381.33L396.37 381.36L395.08 381.45L393.81 381.59L393.81 381.59L392.55 381.78ZM108.08 291.17L109.23 294.11L110.62 297.01L112.25 299.87L114.11 302.68L116.2 305.44L118.5 308.15L121.03 310.8L123.76 313.4L126.7 315.94L129.84 318.42L133.18 320.84L136.71 323.2L140.42 325.48L144.31 327.69L148.38 329.84L152.61 331.9L157.02 333.89L161.58 335.8L166.29 337.63L171.16 339.37L176.17 341.03L181.32 342.59L186.61 344.07L192.02 345.45L197.56 346.73L203.21 347.91L208.98 349L214.86 349.98L220.84 350.85L226.92 351.61L233.09 352.27L239.35 352.81L245.7 353.23L252.12 353.54L258.62 353.72L265.18 353.78L266.03 353.78L266.88 353.78L267.73 353.77L268.58 353.77L269.43 353.76L270.28 353.75L271.12 353.73L271.97 353.72L272.81 353.7L273.65 353.68L274.5 353.66L275.34 353.63L276.17 353.6L277.01 353.58L277.85 353.55L278.68 353.51L279.52 353.48L280.35 353.44L281.18 353.4L282.01 353.36L282.84 353.32L283.66 353.28L284.49 353.23L285.32 353.18L286.14 353.13L286.96 353.08L287.78 353.03L288.6 352.97L289.42 352.91L290.24 352.85L291.05 352.79L291.87 352.73L292.68 352.66L293.49 352.6L294.3 352.53L295.11 352.46L295.92 352.38L296.72 352.31L297.53 352.23L298.33 352.15L298.27 352.66L298.22 353.16L298.18 353.66L298.15 354.17L298.12 354.67L298.11 355.18L298.1 355.68L298.09 356.19L298.1 356.7L298.11 357.2L298.13 357.71L298.16 358.21L298.2 358.72L298.24 359.23L298.29 359.73L298.36 360.23L298.42 360.74L298.5 361.24L298.58 361.74L298.67 362.24L298.77 362.74L298.88 363.24L299 363.74L299.12 364.23L299.25 364.73L299.39 365.22L299.54 365.71L299.7 366.2L299.86 366.69L300.03 367.17L300.21 367.66L300.4 368.14L300.59 368.62L300.8 369.09L301.01 369.57L301.23 370.04L301.46 370.5L301.69 370.97L301.94 371.43L302.19 371.89L301.22 372.16L300.27 372.47L299.33 372.81L298.41 373.18L297.5 373.58L296.61 374.01L295.73 374.47L294.88 374.96L294.04 375.47L293.22 376.02L292.42 376.59L291.64 377.19L290.88 377.81L290.14 378.46L289.42 379.14L288.73 379.83L288.05 380.55L287.4 381.3L286.77 382.06L286.17 382.85L285.59 383.65L285.03 384.48L284.51 385.32L284 386.19L283.52 387.07L283.07 387.97L282.65 388.88L282.26 389.82L281.89 390.76L281.55 391.72L281.25 392.7L280.97 393.69L280.72 394.69L280.51 395.7L280.32 396.73L280.17 397.76L280.05 398.81L279.97 399.87L279.92 400.93L279.9 402L279.9 410.57L279.54 410.59L279.17 410.6L278.81 410.62L278.44 410.63L278.08 410.65L277.71 410.66L277.35 410.67L276.98 410.69L276.62 410.7L276.25 410.71L275.88 410.73L275.52 410.74L275.15 410.75L274.79 410.76L274.42 410.77L274.05 410.78L273.69 410.79L273.32 410.8L272.95 410.81L272.58 410.82L272.22 410.83L271.85 410.84L271.48 410.85L271.11 410.85L270.74 410.86L270.37 410.87L270 410.87L269.63 410.88L269.26 410.89L268.89 410.89L268.52 410.9L268.15 410.9L267.78 410.9L267.41 410.91L267.04 410.91L266.67 410.91L266.3 410.91L265.92 410.92L265.55 410.92L265.18 410.92L258.62 410.85L252.12 410.67L245.7 410.36L239.35 409.94L233.09 409.4L226.92 408.74L220.84 407.98L214.86 407.11L208.98 406.13L203.21 405.04L197.56 403.86L192.02 402.58L186.61 401.2L181.32 399.72L176.18 398.16L171.17 396.5L166.3 394.76L161.58 392.93L157.02 391.02L152.62 389.03L148.38 386.96L144.32 384.82L140.42 382.61L136.71 380.32L133.19 377.97L129.85 375.55L126.71 373.07L123.77 370.53L121.03 367.93L118.51 365.28L116.2 362.57L114.12 359.81L112.26 357L110.63 354.15L109.24 351.25L108.08 348.31L107.18 345.33L106.53 342.32L106.13 339.27L106 336.19L106 279.04L106.13 282.12L106.53 285.17L107.18 288.19L107.18 288.19L108.08 291.17ZM424.26 261.02L424.19 261.85L424.1 262.67L423.99 263.5L423.86 264.32L423.72 265.13L423.55 265.95L423.37 266.76L423.17 267.57L422.95 268.38L422.71 269.18L422.45 269.98L422.17 270.78L421.88 271.57L421.57 272.37L421.24 273.16L420.89 273.94L420.52 274.73L420.14 275.51L419.74 276.29L419.32 277.06L418.89 277.83L418.44 278.6L417.97 279.36L417.48 280.12L416.98 280.88L416.46 281.64L415.93 282.39L415.38 283.13L414.81 283.88L414.23 284.62L413.63 285.35L413.02 286.09L412.39 286.82L411.74 287.54L411.08 288.26L410.4 288.98L409.71 289.69L409.68 289.69L409.65 289.69L409.63 289.69L409.6 289.69L409.57 289.68L409.54 289.68L409.51 289.68L409.48 289.68L409.45 289.67L409.42 289.67L409.39 289.67L409.36 289.66L409.33 289.66L409.31 289.66L409.28 289.65L409.25 289.65L409.22 289.65L409.16 289.64L409.13 289.63L409.1 289.63L409.07 289.63L409.04 289.62L409.01 289.62L408.98 289.62L408.95 289.61L408.92 289.61L408.89 289.61L408.86 289.6L408.83 289.6L408.8 289.6L408.77 289.6L408.74 289.59L408.71 289.59L408.68 289.59L408.65 289.59L408.62 289.59L408.59 289.59L408.56 289.59L408.53 289.59L386.45 289.59L385.44 289.6L384.44 289.66L383.45 289.75L382.47 289.87L381.5 290.03L380.53 290.22L379.58 290.44L378.64 290.7L377.7 290.98L376.79 291.3L375.88 291.65L374.99 292.03L374.11 292.44L373.25 292.88L372.4 293.35L371.57 293.85L370.76 294.37L369.96 294.92L369.18 295.5L368.42 296.1L367.68 296.73L366.95 297.38L366.25 298.06L365.57 298.76L364.91 299.48L364.27 300.23L363.66 301L363.06 301.79L362.49 302.6L361.95 303.43L361.43 304.28L360.94 305.15L360.47 306.04L360.03 306.95L359.62 307.88L359.23 308.82L358.87 309.78L358.55 310.76L358.25 311.75L357.98 312.76L357.63 312.54L357.29 312.34L356.94 312.14L356.58 311.95L356.23 311.76L355.87 311.57L355.52 311.4L355.16 311.22L354.8 311.06L354.44 310.89L354.07 310.74L353.71 310.59L353.34 310.44L352.98 310.3L352.61 310.16L352.24 310.04L351.87 309.91L351.5 309.79L351.12 309.68L350.75 309.57L350.37 309.47L350 309.37L349.62 309.28L349.25 309.19L348.87 309.11L348.49 309.03L348.11 308.96L347.73 308.89L347.35 308.83L346.97 308.78L346.59 308.73L346.2 308.68L345.82 308.64L345.44 308.61L345.06 308.58L344.67 308.56L344.29 308.54L343.91 308.53L343.53 308.52L343.14 308.52L342.57 308.52L342 308.54L341.43 308.57L340.87 308.61L340.3 308.66L339.73 308.72L339.17 308.8L338.61 308.88L338.04 308.98L337.48 309.09L336.93 309.21L336.37 309.34L335.82 309.49L335.26 309.64L334.72 309.81L334.17 309.98L333.63 310.17L333.09 310.37L332.55 310.58L332.01 310.81L331.48 311.04L330.96 311.29L330.44 311.54L329.92 311.81L329.4 312.09L328.89 312.38L328.39 312.68L327.89 312.99L327.39 313.32L326.9 313.65L326.42 314L325.94 314.36L325.46 314.72L324.99 315.1L324.53 315.49L324.07 315.9L323.62 316.31L323.18 316.73L322.74 317.17L322.31 317.62L310.42 330.16L309.34 330.31L308.26 330.46L307.17 330.6L306.09 330.74L305 330.87L303.9 331L302.81 331.13L301.71 331.26L300.61 331.38L299.5 331.49L298.4 331.61L297.29 331.72L296.17 331.82L295.06 331.93L293.94 332.03L292.82 332.12L291.7 332.21L290.57 332.3L289.44 332.39L288.31 332.47L287.18 332.54L286.04 332.62L284.9 332.69L283.76 332.75L282.62 332.81L281.47 332.87L280.32 332.93L279.17 332.98L278.02 333.02L276.86 333.07L275.7 333.1L274.54 333.14L273.38 333.17L272.21 333.2L271.05 333.22L269.88 333.24L268.71 333.25L267.53 333.26L266.36 333.27L265.18 333.27L258.62 333.21L252.12 333.02L245.7 332.72L239.35 332.29L233.09 331.75L226.92 331.1L220.84 330.33L214.86 329.46L208.98 328.48L203.21 327.4L197.56 326.21L192.02 324.93L186.61 323.55L181.33 322.07L176.18 320.51L171.17 318.85L166.3 317.11L161.58 315.28L157.02 313.37L152.62 311.38L148.38 309.32L144.32 307.17L140.43 304.96L136.71 302.67L133.19 300.32L129.85 297.9L126.71 295.42L123.77 292.88L121.04 290.28L118.52 287.63L116.21 284.92L114.12 282.16L112.26 279.35L110.64 276.49L109.24 273.59L108.09 270.65L107.19 267.67L106.54 264.66L106.14 261.61L106.01 258.53L106.01 201.38L106.14 204.46L106.54 207.51L107.19 210.53L108.09 213.51L109.24 216.45L110.64 219.34L112.26 222.2L114.12 225.01L116.21 227.77L118.51 230.48L121.04 233.13L123.77 235.73L126.71 238.27L129.85 240.76L133.18 243.17L136.71 245.53L140.42 247.81L144.31 250.03L148.38 252.17L152.61 254.23L157.02 256.22L161.58 258.13L166.29 259.96L171.16 261.7L176.17 263.36L181.31 264.93L186.6 266.4L192.01 267.78L197.55 269.06L203.2 270.25L208.97 271.33L214.85 272.31L220.83 273.19L226.91 273.95L233.08 274.6L239.34 275.14L245.68 275.57L252.11 275.87L258.6 276.06L265.16 276.12L271.73 276.06L278.22 275.87L284.64 275.57L290.99 275.14L297.25 274.6L303.42 273.95L309.5 273.19L315.48 272.31L321.36 271.33L327.13 270.25L332.79 269.06L338.32 267.78L343.74 266.4L349.02 264.93L354.17 263.36L359.18 261.7L364.05 259.96L368.76 258.13L373.33 256.22L377.73 254.23L381.97 252.17L386.03 250.03L389.92 247.81L393.64 245.53L397.16 243.17L400.5 240.76L403.64 238.27L406.58 235.73L409.31 233.13L411.84 230.48L414.15 227.77L416.23 225.01L418.09 222.2L419.72 219.34L421.11 216.45L422.26 213.51L423.17 210.53L423.82 207.51L424.21 204.46L424.34 201.38L424.34 258.53L424.33 259.36L424.31 260.19L424.31 260.19L424.26 261.02ZM291 107.11L297.26 107.66L303.43 108.31L309.51 109.07L315.49 109.95L321.37 110.93L327.14 112.01L332.79 113.2L338.33 114.48L343.74 115.86L349.03 117.33L354.18 118.9L359.19 120.56L364.06 122.3L368.77 124.13L373.33 126.04L377.74 128.03L381.97 130.1L386.04 132.24L389.93 134.45L393.65 136.74L397.17 139.09L400.51 141.51L403.65 143.99L406.59 146.53L409.33 149.13L411.85 151.79L414.16 154.5L416.24 157.25L418.1 160.06L419.73 162.92L421.13 165.82L422.28 168.76L423.18 171.73L423.83 174.75L424.23 177.8L424.36 180.88L424.23 183.96L423.83 187.01L423.18 190.02L422.28 193L421.13 195.94L419.73 198.84L418.1 201.7L416.24 204.5L414.16 207.26L411.85 209.97L409.33 212.63L406.59 215.23L403.65 217.77L400.51 220.25L397.17 222.67L393.65 225.02L389.93 227.31L386.04 229.52L381.97 231.66L377.74 233.73L373.33 235.72L368.77 237.63L364.06 239.46L359.19 241.2L354.18 242.86L349.03 244.42L343.74 245.9L338.33 247.28L332.79 248.56L327.14 249.75L321.37 250.83L315.49 251.81L309.51 252.69L303.43 253.45L297.26 254.1L291 254.64L284.66 255.07L278.23 255.37L271.74 255.56L265.18 255.62L258.62 255.56L252.12 255.37L245.7 255.07L239.36 254.64L233.1 254.1L226.93 253.45L220.85 252.69L214.87 251.81L208.99 250.83L203.22 249.75L197.56 248.56L192.03 247.28L186.61 245.9L181.33 244.42L176.18 242.86L171.17 241.2L166.3 239.46L161.59 237.63L157.02 235.72L152.62 233.73L148.38 231.66L144.32 229.52L140.42 227.31L136.71 225.02L133.18 222.67L129.85 220.25L126.71 217.77L123.76 215.23L121.03 212.63L118.51 209.97L116.2 207.26L114.11 204.5L112.25 201.7L110.62 198.84L109.23 195.94L108.08 193L107.18 190.02L106.53 187.01L106.13 183.96L106 180.88L106.13 177.8L106.53 174.75L107.18 171.73L108.08 168.76L109.23 165.82L110.62 162.92L112.25 160.06L114.11 157.25L116.2 154.5L118.51 151.79L121.03 149.13L123.76 146.53L126.71 143.99L129.85 141.51L133.18 139.09L136.71 136.74L140.42 134.45L144.32 132.24L148.38 130.1L152.62 128.03L157.02 126.04L161.59 124.13L166.3 122.3L171.17 120.56L176.18 118.9L181.33 117.33L186.61 115.86L192.03 114.48L197.56 113.2L203.22 112.01L208.99 110.93L214.87 109.95L220.85 109.07L226.93 108.31L233.1 107.66L239.36 107.11L245.7 106.69L252.12 106.38L258.62 106.2L265.18 106.14L271.74 106.2L278.23 106.38L284.66 106.69L284.66 106.69L291 107.11Z" id="bFwqE8e7A"></path></defs><g><g><g><g><use xlink:href="#a3G9n5C7jE" opacity="1" fill="#e9eeff" fill-opacity="1"></use><g><use xlink:href="#a3G9n5C7jE" opacity="1" fill-opacity="0" stroke="#abbcff" stroke-width="30" stroke-opacity="1"></use></g></g><g><use xlink:href="#bFwqE8e7A" opacity="1" fill="#8aa2ff" fill-opacity="1"></use><g><filter id="shadow4960627" x="85" y="85.14" width="432" height="446.86" filterUnits="userSpaceOnUse" primitiveUnits="userSpaceOnUse"><feFlood></feFlood><feComposite in2="SourceAlpha" operator="out"></feComposite><feGaussianBlur stdDeviation="1"></feGaussianBlur><feOffset dx="10" dy="4" result="afterOffset"></feOffset><feFlood flood-color="#274f7a" flood-opacity="0.5"></feFlood><feComposite in2="afterOffset" operator="in"></feComposite><feMorphology operator="dilate" radius="4"></feMorphology><feComposite in2="SourceAlpha" operator="in"></feComposite></filter><path d="M414.53 348.61L414.99 348.74L415.46 348.88L415.92 349.02L416.38 349.17L416.84 349.32L417.29 349.47L417.75 349.63L418.2 349.79L418.65 349.96L419.11 350.12L419.56 350.29L420 350.47L420.45 350.65L420.89 350.83L421.34 351.01L421.78 351.2L422.22 351.39L422.66 351.59L423.09 351.79L423.53 351.99L423.96 352.19L424.39 352.4L424.82 352.61L425.25 352.83L425.67 353.05L426.1 353.27L426.52 353.49L426.94 353.72L427.36 353.95L427.78 354.18L428.19 354.42L428.61 354.66L429.02 354.91L429.43 355.15L429.84 355.4L430.24 355.66L430.65 355.91L452.2 339.56L467.82 356.04L452.51 379.05L452.75 379.48L452.98 379.91L453.22 380.34L453.45 380.77L453.68 381.2L453.9 381.64L454.13 382.08L454.35 382.52L454.56 382.96L454.78 383.4L454.99 383.85L455.19 384.29L455.4 384.74L455.6 385.19L455.8 385.64L455.99 386.1L456.19 386.55L456.37 387.01L456.56 387.47L456.74 387.93L456.92 388.39L457.1 388.85L457.27 389.31L457.44 389.78L457.61 390.25L457.77 390.72L457.93 391.19L458.09 391.66L458.24 392.14L458.39 392.61L458.54 393.09L458.69 393.57L458.83 394.05L458.96 394.53L459.1 395.01L459.23 395.5L459.36 395.98L459.48 396.47L459.6 396.96L459.72 397.45L486 401.99L486 425.28L459.71 430.13L459.59 430.62L459.47 431.11L459.35 431.6L459.22 432.09L459.09 432.58L458.96 433.06L458.82 433.55L458.68 434.03L458.53 434.51L458.39 434.99L458.24 435.46L458.08 435.94L457.93 436.41L457.77 436.89L457.6 437.36L457.44 437.83L457.27 438.29L457.1 438.76L456.92 439.22L456.74 439.69L456.56 440.15L456.37 440.61L456.18 441.06L455.99 441.52L455.8 441.97L455.6 442.42L455.4 442.87L455.19 443.32L454.99 443.77L454.78 444.21L454.56 444.66L454.35 445.1L454.13 445.54L453.9 445.97L453.68 446.41L453.45 446.84L453.22 447.28L452.98 447.71L452.75 448.13L452.51 448.56L468.07 471.34L452.46 487.83L430.66 471.7L430.26 471.95L429.85 472.21L429.44 472.46L429.03 472.7L428.62 472.95L428.21 473.19L427.79 473.43L427.38 473.66L426.96 473.89L426.54 474.12L426.11 474.35L425.69 474.57L425.26 474.79L424.84 475L424.41 475.21L423.98 475.42L423.54 475.63L423.11 475.83L422.67 476.03L422.24 476.23L421.8 476.42L421.36 476.61L420.91 476.79L420.47 476.98L420.02 477.16L419.58 477.33L419.13 477.5L418.68 477.67L418.23 477.84L417.78 478L417.32 478.16L416.87 478.31L416.41 478.46L415.95 478.61L415.49 478.75L415.03 478.89L414.57 479.03L414.1 479.16L413.64 479.29L413.17 479.42L408.53 507L386.45 507L382.12 479.49L381.66 479.37L381.19 479.24L380.72 479.11L380.26 478.98L379.79 478.84L379.33 478.7L378.87 478.55L378.41 478.4L377.96 478.25L377.5 478.09L377.05 477.94L376.59 477.77L376.14 477.61L375.69 477.44L375.24 477.26L374.79 477.09L374.35 476.91L373.9 476.73L373.46 476.54L373.02 476.35L372.58 476.16L372.14 475.96L371.71 475.76L371.27 475.56L370.84 475.35L370.41 475.14L369.98 474.93L369.55 474.71L369.12 474.49L368.7 474.27L368.28 474.04L367.85 473.81L367.44 473.58L367.02 473.34L366.6 473.1L366.19 472.86L365.77 472.61L365.36 472.36L364.95 472.11L364.55 471.85L342.91 487.83L327.29 471.34L342.61 448.75L342.37 448.32L342.12 447.88L341.88 447.45L341.65 447.02L341.41 446.58L341.18 446.14L340.96 445.7L340.73 445.25L340.51 444.81L340.29 444.36L340.08 443.91L339.87 443.46L339.66 443.01L339.45 442.56L339.25 442.1L339.05 441.64L338.86 441.18L338.66 440.72L338.48 440.26L338.29 439.79L338.11 439.32L337.93 438.86L337.75 438.38L337.58 437.91L337.41 437.44L337.24 436.96L337.08 436.49L336.92 436.01L336.77 435.52L336.62 435.04L336.47 434.56L336.32 434.07L336.18 433.58L336.04 433.1L335.9 432.6L335.77 432.11L335.64 431.62L335.52 431.12L335.4 430.63L335.28 430.13L309.34 425.28L309.34 401.99L335.3 397.44L335.41 396.94L335.54 396.44L335.66 395.95L335.79 395.45L335.92 394.96L336.06 394.47L336.2 393.98L336.34 393.49L336.49 393.01L336.64 392.52L336.79 392.04L336.95 391.56L337.11 391.08L337.27 390.6L337.44 390.13L337.61 389.66L337.78 389.18L337.95 388.71L338.13 388.25L338.32 387.78L338.5 387.31L338.69 386.85L338.88 386.39L339.08 385.93L339.28 385.47L339.48 385.02L339.68 384.56L339.89 384.11L340.1 383.66L340.32 383.21L340.53 382.77L340.75 382.32L340.98 381.88L341.2 381.44L341.43 381L341.67 380.56L341.9 380.13L342.14 379.69L342.38 379.26L342.63 378.83L327.51 356.04L343.13 339.56L364.62 355.74L365.03 355.49L365.43 355.24L365.84 354.99L366.25 354.74L366.67 354.5L367.08 354.27L367.5 354.03L367.92 353.8L368.34 353.57L368.76 353.35L369.18 353.12L369.61 352.91L370.04 352.69L370.47 352.48L370.9 352.27L371.33 352.06L371.76 351.86L372.2 351.66L372.64 351.47L373.08 351.27L373.52 351.08L373.96 350.9L374.41 350.72L374.85 350.54L375.3 350.36L375.75 350.19L376.2 350.02L376.65 349.86L377.11 349.69L377.56 349.54L378.02 349.38L378.48 349.23L378.94 349.08L379.4 348.94L379.86 348.8L380.33 348.66L380.79 348.53L381.26 348.4L381.73 348.27L382.2 348.15L386.45 320.64L408.53 320.64L413.13 348.22L413.6 348.35L414.06 348.48L414.06 348.48L414.53 348.61ZM108.08 368.8L109.23 371.74L110.62 374.64L112.25 377.5L114.11 380.31L116.2 383.07L118.5 385.78L121.03 388.43L123.76 391.03L126.7 393.58L129.84 396.06L133.18 398.47L136.71 400.83L140.42 403.11L144.31 405.33L148.38 407.47L152.61 409.53L157.02 411.52L161.58 413.43L166.29 415.26L171.16 417L176.17 418.66L181.32 420.22L186.61 421.7L192.02 423.08L197.56 424.36L203.21 425.55L208.98 426.63L214.86 427.61L220.84 428.48L226.92 429.24L233.09 429.9L239.35 430.44L245.7 430.86L252.12 431.17L258.62 431.35L265.18 431.42L265.56 431.41L265.95 431.41L266.33 431.41L266.72 431.41L267.1 431.41L267.49 431.41L267.87 431.4L268.26 431.4L268.64 431.4L269.02 431.39L269.41 431.39L269.79 431.38L270.17 431.38L270.56 431.37L270.94 431.36L271.32 431.36L271.7 431.35L272.09 431.34L272.47 431.33L272.85 431.32L273.23 431.31L273.61 431.3L273.99 431.29L274.38 431.28L274.76 431.27L275.14 431.26L275.52 431.25L275.9 431.24L276.28 431.23L276.66 431.21L277.04 431.2L277.42 431.18L277.8 431.17L278.17 431.16L278.55 431.14L278.93 431.12L279.31 431.11L279.69 431.09L280.07 431.08L280.44 431.06L280.61 431.93L280.81 432.8L281.02 433.66L281.26 434.51L281.52 435.35L281.8 436.18L282.1 436.99L282.43 437.8L282.77 438.6L283.14 439.38L283.52 440.16L283.93 440.91L284.35 441.66L284.8 442.4L285.26 443.11L285.74 443.82L286.24 444.51L286.76 445.19L287.29 445.85L287.85 446.49L288.42 447.12L289 447.73L289.61 448.32L290.22 448.9L290.86 449.46L291.51 450L292.17 450.52L292.85 451.02L293.55 451.5L294.25 451.96L294.98 452.4L295.71 452.82L296.46 453.22L297.22 453.6L298 453.95L298.78 454.28L299.58 454.59L300.39 454.88L301.21 455.14L302.04 455.38L301.64 456.11L301.26 456.85L300.9 457.59L300.56 458.34L300.24 459.1L299.94 459.87L299.67 460.64L299.41 461.41L299.18 462.19L298.97 462.98L298.77 463.77L298.6 464.56L298.45 465.35L298.32 466.15L298.21 466.95L298.12 467.75L298.05 468.56L298.01 469.36L297.98 470.17L297.97 470.97L297.98 471.78L298.01 472.58L298.06 473.38L298.13 474.18L298.22 474.98L298.33 475.78L298.46 476.58L298.61 477.37L298.78 478.16L298.97 478.94L299.17 479.72L299.4 480.5L299.64 481.27L299.91 482.03L300.19 482.79L300.49 483.54L300.81 484.29L301.15 485.03L301.5 485.76L301.88 486.48L300.99 486.58L300.1 486.68L299.21 486.77L298.32 486.86L297.43 486.95L296.54 487.04L295.64 487.12L294.74 487.21L293.84 487.29L292.94 487.36L292.04 487.44L291.13 487.51L290.23 487.59L289.32 487.65L288.41 487.72L287.5 487.79L286.59 487.85L285.68 487.91L284.76 487.96L283.84 488.02L282.92 488.07L282 488.12L281.08 488.17L280.16 488.21L279.23 488.25L278.31 488.29L277.38 488.33L276.45 488.36L275.52 488.39L274.59 488.42L273.65 488.45L272.72 488.47L271.78 488.49L270.84 488.51L269.9 488.53L268.96 488.54L268.02 488.55L267.07 488.56L266.13 488.56L265.18 488.56L258.62 488.5L252.12 488.32L245.7 488.01L239.35 487.59L233.09 487.05L226.92 486.39L220.84 485.63L214.86 484.75L208.98 483.77L203.21 482.69L197.56 481.51L192.02 480.22L186.61 478.84L181.32 477.37L176.17 475.8L171.16 474.15L166.29 472.4L161.58 470.58L157.02 468.67L152.61 466.68L148.38 464.61L144.31 462.47L140.42 460.25L136.71 457.97L133.18 455.62L129.84 453.2L126.7 450.72L123.76 448.17L121.03 445.57L118.5 442.92L116.2 440.21L114.11 437.45L112.25 434.64L110.62 431.79L109.23 428.89L108.08 425.95L107.18 422.97L106.53 419.95L106.13 416.9L106 413.82L106 356.67L106.13 359.76L106.53 362.81L107.18 365.82L107.18 365.82L108.08 368.8ZM392.55 381.78L391.32 382.03L390.09 382.33L388.89 382.68L387.71 383.07L386.55 383.52L385.41 384.02L384.29 384.56L383.2 385.14L382.14 385.77L381.1 386.45L380.08 387.16L379.1 387.91L378.15 388.71L377.22 389.54L376.33 390.41L375.48 391.31L374.65 392.25L373.86 393.23L373.11 394.23L372.4 395.27L371.72 396.34L371.08 397.43L370.49 398.56L369.93 399.71L369.42 400.89L368.95 402.09L368.52 403.31L368.15 404.56L367.81 405.83L367.53 407.12L367.3 408.42L367.11 409.75L366.98 411.09L366.9 412.45L366.87 413.82L366.9 415.19L366.98 416.55L367.11 417.9L367.3 419.22L367.53 420.53L367.81 421.82L368.15 423.09L368.52 424.34L368.95 425.57L369.42 426.77L369.93 427.95L370.49 429.1L371.08 430.22L371.72 431.32L372.4 432.39L373.11 433.42L373.86 434.43L374.65 435.4L375.48 436.34L376.33 437.24L377.22 438.11L378.15 438.94L379.1 439.74L380.08 440.49L381.1 441.2L382.14 441.87L383.2 442.5L384.29 443.09L385.41 443.63L386.55 444.12L387.71 444.57L388.89 444.97L390.09 445.32L391.32 445.61L392.55 445.86L393.81 446.05L395.08 446.19L396.37 446.28L397.67 446.31L398.97 446.28L400.26 446.19L401.53 446.05L402.79 445.86L404.03 445.61L405.26 445.32L406.46 444.97L407.64 444.57L408.8 444.12L409.94 443.63L411.06 443.09L412.15 442.5L413.22 441.87L414.26 441.2L415.27 440.49L416.25 439.74L417.2 438.94L418.13 438.11L419.02 437.24L419.87 436.34L420.7 435.4L421.49 434.43L422.24 433.42L422.95 432.39L423.63 431.32L424.26 430.22L424.86 429.1L425.41 427.95L425.93 426.77L426.39 425.57L426.82 424.34L427.2 423.09L427.53 421.82L427.81 420.53L428.04 419.22L428.23 417.9L428.36 416.55L428.44 415.19L428.47 413.82L428.44 412.45L428.36 411.09L428.23 409.75L428.04 408.42L427.81 407.12L427.53 405.83L427.2 404.56L426.82 403.31L426.39 402.09L425.93 400.89L425.41 399.71L424.86 398.56L424.26 397.43L423.63 396.34L422.95 395.27L422.24 394.23L421.49 393.23L420.7 392.25L419.87 391.31L419.02 390.41L418.13 389.54L417.2 388.71L416.25 387.91L415.27 387.16L414.26 386.45L413.22 385.77L412.15 385.14L411.06 384.56L409.94 384.02L408.8 383.52L407.64 383.07L406.46 382.68L405.26 382.33L404.03 382.03L402.79 381.78L401.53 381.59L400.26 381.45L398.97 381.36L397.67 381.33L396.37 381.36L395.08 381.45L393.81 381.59L393.81 381.59L392.55 381.78ZM108.08 291.17L109.23 294.11L110.62 297.01L112.25 299.87L114.11 302.68L116.2 305.44L118.5 308.15L121.03 310.8L123.76 313.4L126.7 315.94L129.84 318.42L133.18 320.84L136.71 323.2L140.42 325.48L144.31 327.69L148.38 329.84L152.61 331.9L157.02 333.89L161.58 335.8L166.29 337.63L171.16 339.37L176.17 341.03L181.32 342.59L186.61 344.07L192.02 345.45L197.56 346.73L203.21 347.91L208.98 349L214.86 349.98L220.84 350.85L226.92 351.61L233.09 352.27L239.35 352.81L245.7 353.23L252.12 353.54L258.62 353.72L265.18 353.78L266.03 353.78L266.88 353.78L267.73 353.77L268.58 353.77L269.43 353.76L270.28 353.75L271.12 353.73L271.97 353.72L272.81 353.7L273.65 353.68L274.5 353.66L275.34 353.63L276.17 353.6L277.01 353.58L277.85 353.55L278.68 353.51L279.52 353.48L280.35 353.44L281.18 353.4L282.01 353.36L282.84 353.32L283.66 353.28L284.49 353.23L285.32 353.18L286.14 353.13L286.96 353.08L287.78 353.03L288.6 352.97L289.42 352.91L290.24 352.85L291.05 352.79L291.87 352.73L292.68 352.66L293.49 352.6L294.3 352.53L295.11 352.46L295.92 352.38L296.72 352.31L297.53 352.23L298.33 352.15L298.27 352.66L298.22 353.16L298.18 353.66L298.15 354.17L298.12 354.67L298.11 355.18L298.1 355.68L298.09 356.19L298.1 356.7L298.11 357.2L298.13 357.71L298.16 358.21L298.2 358.72L298.24 359.23L298.29 359.73L298.36 360.23L298.42 360.74L298.5 361.24L298.58 361.74L298.67 362.24L298.77 362.74L298.88 363.24L299 363.74L299.12 364.23L299.25 364.73L299.39 365.22L299.54 365.71L299.7 366.2L299.86 366.69L300.03 367.17L300.21 367.66L300.4 368.14L300.59 368.62L300.8 369.09L301.01 369.57L301.23 370.04L301.46 370.5L301.69 370.97L301.94 371.43L302.19 371.89L301.22 372.16L300.27 372.47L299.33 372.81L298.41 373.18L297.5 373.58L296.61 374.01L295.73 374.47L294.88 374.96L294.04 375.47L293.22 376.02L292.42 376.59L291.64 377.19L290.88 377.81L290.14 378.46L289.42 379.14L288.73 379.83L288.05 380.55L287.4 381.3L286.77 382.06L286.17 382.85L285.59 383.65L285.03 384.48L284.51 385.32L284 386.19L283.52 387.07L283.07 387.97L282.65 388.88L282.26 389.82L281.89 390.76L281.55 391.72L281.25 392.7L280.97 393.69L280.72 394.69L280.51 395.7L280.32 396.73L280.17 397.76L280.05 398.81L279.97 399.87L279.92 400.93L279.9 402L279.9 410.57L279.54 410.59L279.17 410.6L278.81 410.62L278.44 410.63L278.08 410.65L277.71 410.66L277.35 410.67L276.98 410.69L276.62 410.7L276.25 410.71L275.88 410.73L275.52 410.74L275.15 410.75L274.79 410.76L274.42 410.77L274.05 410.78L273.69 410.79L273.32 410.8L272.95 410.81L272.58 410.82L272.22 410.83L271.85 410.84L271.48 410.85L271.11 410.85L270.74 410.86L270.37 410.87L270 410.87L269.63 410.88L269.26 410.89L268.89 410.89L268.52 410.9L268.15 410.9L267.78 410.9L267.41 410.91L267.04 410.91L266.67 410.91L266.3 410.91L265.92 410.92L265.55 410.92L265.18 410.92L258.62 410.85L252.12 410.67L245.7 410.36L239.35 409.94L233.09 409.4L226.92 408.74L220.84 407.98L214.86 407.11L208.98 406.13L203.21 405.04L197.56 403.86L192.02 402.58L186.61 401.2L181.32 399.72L176.18 398.16L171.17 396.5L166.3 394.76L161.58 392.93L157.02 391.02L152.62 389.03L148.38 386.96L144.32 384.82L140.42 382.61L136.71 380.32L133.19 377.97L129.85 375.55L126.71 373.07L123.77 370.53L121.03 367.93L118.51 365.28L116.2 362.57L114.12 359.81L112.26 357L110.63 354.15L109.24 351.25L108.08 348.31L107.18 345.33L106.53 342.32L106.13 339.27L106 336.19L106 279.04L106.13 282.12L106.53 285.17L107.18 288.19L107.18 288.19L108.08 291.17ZM424.26 261.02L424.19 261.85L424.1 262.67L423.99 263.5L423.86 264.32L423.72 265.13L423.55 265.95L423.37 266.76L423.17 267.57L422.95 268.38L422.71 269.18L422.45 269.98L422.17 270.78L421.88 271.57L421.57 272.37L421.24 273.16L420.89 273.94L420.52 274.73L420.14 275.51L419.74 276.29L419.32 277.06L418.89 277.83L418.44 278.6L417.97 279.36L417.48 280.12L416.98 280.88L416.46 281.64L415.93 282.39L415.38 283.13L414.81 283.88L414.23 284.62L413.63 285.35L413.02 286.09L412.39 286.82L411.74 287.54L411.08 288.26L410.4 288.98L409.71 289.69L409.68 289.69L409.65 289.69L409.63 289.69L409.6 289.69L409.57 289.68L409.54 289.68L409.51 289.68L409.48 289.68L409.45 289.67L409.42 289.67L409.39 289.67L409.36 289.66L409.33 289.66L409.31 289.66L409.28 289.65L409.25 289.65L409.22 289.65L409.16 289.64L409.13 289.63L409.1 289.63L409.07 289.63L409.04 289.62L409.01 289.62L408.98 289.62L408.95 289.61L408.92 289.61L408.89 289.61L408.86 289.6L408.83 289.6L408.8 289.6L408.77 289.6L408.74 289.59L408.71 289.59L408.68 289.59L408.65 289.59L408.62 289.59L408.59 289.59L408.56 289.59L408.53 289.59L386.45 289.59L385.44 289.6L384.44 289.66L383.45 289.75L382.47 289.87L381.5 290.03L380.53 290.22L379.58 290.44L378.64 290.7L377.7 290.98L376.79 291.3L375.88 291.65L374.99 292.03L374.11 292.44L373.25 292.88L372.4 293.35L371.57 293.85L370.76 294.37L369.96 294.92L369.18 295.5L368.42 296.1L367.68 296.73L366.95 297.38L366.25 298.06L365.57 298.76L364.91 299.48L364.27 300.23L363.66 301L363.06 301.79L362.49 302.6L361.95 303.43L361.43 304.28L360.94 305.15L360.47 306.04L360.03 306.95L359.62 307.88L359.23 308.82L358.87 309.78L358.55 310.76L358.25 311.75L357.98 312.76L357.63 312.54L357.29 312.34L356.94 312.14L356.58 311.95L356.23 311.76L355.87 311.57L355.52 311.4L355.16 311.22L354.8 311.06L354.44 310.89L354.07 310.74L353.71 310.59L353.34 310.44L352.98 310.3L352.61 310.16L352.24 310.04L351.87 309.91L351.5 309.79L351.12 309.68L350.75 309.57L350.37 309.47L350 309.37L349.62 309.28L349.25 309.19L348.87 309.11L348.49 309.03L348.11 308.96L347.73 308.89L347.35 308.83L346.97 308.78L346.59 308.73L346.2 308.68L345.82 308.64L345.44 308.61L345.06 308.58L344.67 308.56L344.29 308.54L343.91 308.53L343.53 308.52L343.14 308.52L342.57 308.52L342 308.54L341.43 308.57L340.87 308.61L340.3 308.66L339.73 308.72L339.17 308.8L338.61 308.88L338.04 308.98L337.48 309.09L336.93 309.21L336.37 309.34L335.82 309.49L335.26 309.64L334.72 309.81L334.17 309.98L333.63 310.17L333.09 310.37L332.55 310.58L332.01 310.81L331.48 311.04L330.96 311.29L330.44 311.54L329.92 311.81L329.4 312.09L328.89 312.38L328.39 312.68L327.89 312.99L327.39 313.32L326.9 313.65L326.42 314L325.94 314.36L325.46 314.72L324.99 315.1L324.53 315.49L324.07 315.9L323.62 316.31L323.18 316.73L322.74 317.17L322.31 317.62L310.42 330.16L309.34 330.31L308.26 330.46L307.17 330.6L306.09 330.74L305 330.87L303.9 331L302.81 331.13L301.71 331.26L300.61 331.38L299.5 331.49L298.4 331.61L297.29 331.72L296.17 331.82L295.06 331.93L293.94 332.03L292.82 332.12L291.7 332.21L290.57 332.3L289.44 332.39L288.31 332.47L287.18 332.54L286.04 332.62L284.9 332.69L283.76 332.75L282.62 332.81L281.47 332.87L280.32 332.93L279.17 332.98L278.02 333.02L276.86 333.07L275.7 333.1L274.54 333.14L273.38 333.17L272.21 333.2L271.05 333.22L269.88 333.24L268.71 333.25L267.53 333.26L266.36 333.27L265.18 333.27L258.62 333.21L252.12 333.02L245.7 332.72L239.35 332.29L233.09 331.75L226.92 331.1L220.84 330.33L214.86 329.46L208.98 328.48L203.21 327.4L197.56 326.21L192.02 324.93L186.61 323.55L181.33 322.07L176.18 320.51L171.17 318.85L166.3 317.11L161.58 315.28L157.02 313.37L152.62 311.38L148.38 309.32L144.32 307.17L140.43 304.96L136.71 302.67L133.19 300.32L129.85 297.9L126.71 295.42L123.77 292.88L121.04 290.28L118.52 287.63L116.21 284.92L114.12 282.16L112.26 279.35L110.64 276.49L109.24 273.59L108.09 270.65L107.19 267.67L106.54 264.66L106.14 261.61L106.01 258.53L106.01 201.38L106.14 204.46L106.54 207.51L107.19 210.53L108.09 213.51L109.24 216.45L110.64 219.34L112.26 222.2L114.12 225.01L116.21 227.77L118.51 230.48L121.04 233.13L123.77 235.73L126.71 238.27L129.85 240.76L133.18 243.17L136.71 245.53L140.42 247.81L144.31 250.03L148.38 252.17L152.61 254.23L157.02 256.22L161.58 258.13L166.29 259.96L171.16 261.7L176.17 263.36L181.31 264.93L186.6 266.4L192.01 267.78L197.55 269.06L203.2 270.25L208.97 271.33L214.85 272.31L220.83 273.19L226.91 273.95L233.08 274.6L239.34 275.14L245.68 275.57L252.11 275.87L258.6 276.06L265.16 276.12L271.73 276.06L278.22 275.87L284.64 275.57L290.99 275.14L297.25 274.6L303.42 273.95L309.5 273.19L315.48 272.31L321.36 271.33L327.13 270.25L332.79 269.06L338.32 267.78L343.74 266.4L349.02 264.93L354.17 263.36L359.18 261.7L364.05 259.96L368.76 258.13L373.33 256.22L377.73 254.23L381.97 252.17L386.03 250.03L389.92 247.81L393.64 245.53L397.16 243.17L400.5 240.76L403.64 238.27L406.58 235.73L409.31 233.13L411.84 230.48L414.15 227.77L416.23 225.01L418.09 222.2L419.72 219.34L421.11 216.45L422.26 213.51L423.17 210.53L423.82 207.51L424.21 204.46L424.34 201.38L424.34 258.53L424.33 259.36L424.31 260.19L424.31 260.19L424.26 261.02ZM291 107.11L297.26 107.66L303.43 108.31L309.51 109.07L315.49 109.95L321.37 110.93L327.14 112.01L332.79 113.2L338.33 114.48L343.74 115.86L349.03 117.33L354.18 118.9L359.19 120.56L364.06 122.3L368.77 124.13L373.33 126.04L377.74 128.03L381.97 130.1L386.04 132.24L389.93 134.45L393.65 136.74L397.17 139.09L400.51 141.51L403.65 143.99L406.59 146.53L409.33 149.13L411.85 151.79L414.16 154.5L416.24 157.25L418.1 160.06L419.73 162.92L421.13 165.82L422.28 168.76L423.18 171.73L423.83 174.75L424.23 177.8L424.36 180.88L424.23 183.96L423.83 187.01L423.18 190.02L422.28 193L421.13 195.94L419.73 198.84L418.1 201.7L416.24 204.5L414.16 207.26L411.85 209.97L409.33 212.63L406.59 215.23L403.65 217.77L400.51 220.25L397.17 222.67L393.65 225.02L389.93 227.31L386.04 229.52L381.97 231.66L377.74 233.73L373.33 235.72L368.77 237.63L364.06 239.46L359.19 241.2L354.18 242.86L349.03 244.42L343.74 245.9L338.33 247.28L332.79 248.56L327.14 249.75L321.37 250.83L315.49 251.81L309.51 252.69L303.43 253.45L297.26 254.1L291 254.64L284.66 255.07L278.23 255.37L271.74 255.56L265.18 255.62L258.62 255.56L252.12 255.37L245.7 255.07L239.36 254.64L233.1 254.1L226.93 253.45L220.85 252.69L214.87 251.81L208.99 250.83L203.22 249.75L197.56 248.56L192.03 247.28L186.61 245.9L181.33 244.42L176.18 242.86L171.17 241.2L166.3 239.46L161.59 237.63L157.02 235.72L152.62 233.73L148.38 231.66L144.32 229.52L140.42 227.31L136.71 225.02L133.18 222.67L129.85 220.25L126.71 217.77L123.76 215.23L121.03 212.63L118.51 209.97L116.2 207.26L114.11 204.5L112.25 201.7L110.62 198.84L109.23 195.94L108.08 193L107.18 190.02L106.53 187.01L106.13 183.96L106 180.88L106.13 177.8L106.53 174.75L107.18 171.73L108.08 168.76L109.23 165.82L110.62 162.92L112.25 160.06L114.11 157.25L116.2 154.5L118.51 151.79L121.03 149.13L123.76 146.53L126.71 143.99L129.85 141.51L133.18 139.09L136.71 136.74L140.42 134.45L144.32 132.24L148.38 130.1L152.62 128.03L157.02 126.04L161.59 124.13L166.3 122.3L171.17 120.56L176.18 118.9L181.33 117.33L186.61 115.86L192.03 114.48L197.56 113.2L203.22 112.01L208.99 110.93L214.87 109.95L220.85 109.07L226.93 108.31L233.1 107.66L239.36 107.11L245.7 106.69L252.12 106.38L258.62 106.2L265.18 106.14L271.74 106.2L278.23 106.38L284.66 106.69L284.66 106.69L291 107.11Z" id="a3vSXTljn" fill="white" fill-opacity="1" filter="url(#shadow4960627)"></path></g></g></g></g></g></svg>