<?xml version="1.0" encoding="UTF-8" standalone="no"?>
<!DOCTYPE svg PUBLIC "-//W3C//DTD SVG 1.1//EN" "http://www.w3.org/Graphics/SVG/1.1/DTD/svg11.dtd">
<svg version="1.1" xmlns="http://www.w3.org/2000/svg" xmlns:xlink="http://www.w3.org/1999/xlink" preserveAspectRatio="xMidYMid meet" viewBox="0 0 592 592" width="70" height="70"><defs><path d="M565.77 16C571.42 16 576 20.58 576 26.23C576 136.19 576 455.81 576 565.77C576 571.42 571.42 576 565.77 576C455.81 576 136.19 576 26.23 576C20.58 576 16 571.42 16 565.77C16 455.81 16 136.19 16 26.23C16 20.58 20.58 16 26.23 16C136.19 16 455.81 16 565.77 16Z" id="a1UhDIohO3"></path><linearGradient id="gradiente4dNtbTsp" gradientUnits="userSpaceOnUse" x1="308.64" y1="25" x2="315.03" y2="216.79"><stop style="stop-color: #e4e6ed;stop-opacity: 1" offset="0%"></stop><stop style="stop-color: #f8f8f8;stop-opacity: 1" offset="100%"></stop></linearGradient><path d="M393.76 106.11L394.3 106.17L394.83 106.24L395.35 106.34L395.87 106.46L396.38 106.59L396.88 106.75L397.37 106.92L397.86 107.11L398.33 107.32L398.79 107.55L399.25 107.79L399.69 108.05L400.12 108.33L400.54 108.63L400.95 108.93L401.34 109.26L401.73 109.6L402.09 109.95L402.45 110.32L402.79 110.7L403.12 111.09L403.43 111.49L403.72 111.91L404 112.34L404.27 112.78L404.51 113.23L404.74 113.69L404.95 114.16L405.15 114.64L405.32 115.13L405.48 115.63L405.61 116.13L405.73 116.65L405.83 117.17L405.9 117.7L405.96 118.23L405.99 118.77L406.01 119.86L406.04 120.4L406.1 120.94L406.17 121.47L406.27 121.99L406.39 122.5L406.52 123.01L406.68 123.5L406.85 123.99L407.05 124.47L407.26 124.94L407.49 125.41L407.73 125.86L408 126.3L408.28 126.72L408.57 127.14L408.88 127.55L409.21 127.94L409.55 128.32L409.91 128.69L410.27 129.04L410.66 129.38L411.05 129.7L411.46 130.01L411.88 130.3L412.31 130.58L412.75 130.84L413.21 131.09L413.67 131.31L414.14 131.52L414.63 131.72L415.12 131.89L415.62 132.04L416.13 132.18L416.65 132.3L417.17 132.39L417.7 132.47L418.24 132.52L418.78 132.55L419.33 132.57L472.67 132.57L473.22 132.58L473.76 132.61L474.3 132.66L474.83 132.74L475.35 132.83L475.87 132.95L476.38 133.09L476.88 133.24L477.37 133.41L477.86 133.61L478.33 133.82L478.79 134.04L479.25 134.29L479.69 134.55L480.12 134.83L480.54 135.12L480.95 135.43L481.34 135.75L481.73 136.09L482.09 136.45L482.45 136.81L482.79 137.19L483.12 137.58L483.43 137.99L483.72 138.41L484 138.83L484.27 139.27L484.51 139.72L484.74 140.19L484.95 140.66L485.15 141.14L485.32 141.63L485.48 142.12L485.61 142.63L485.73 143.14L485.83 143.66L485.9 144.19L485.96 144.73L485.99 145.27L486 145.81L486 198.8L485.99 199.35L485.95 199.89L485.9 200.42L485.82 200.95L485.72 201.47L485.6 201.98L485.47 202.49L485.31 202.98L485.14 203.47L484.94 203.95L484.73 204.42L484.5 204.88L484.25 205.33L483.99 205.77L483.71 206.2L483.42 206.62L483.1 207.02L482.78 207.41L482.44 207.79L482.08 208.16L481.71 208.51L481.33 208.85L480.94 209.17L480.53 209.48L480.11 209.78L479.68 210.05L479.24 210.32L478.79 210.56L478.32 210.79L477.85 211L477.37 211.19L476.88 211.37L476.38 211.52L475.87 211.66L475.35 211.77L474.83 211.87L474.3 211.95L473.76 212L473.22 212.04L472.67 212.05L352.67 212.05L352.12 212.04L351.57 212L351.04 211.95L350.51 211.87L349.98 211.77L349.47 211.66L348.96 211.52L348.46 211.37L347.97 211.19L347.48 211L347.01 210.79L346.55 210.56L346.09 210.32L345.65 210.05L345.22 209.78L344.8 209.48L344.4 209.17L344 208.85L343.62 208.51L343.25 208.16L342.9 207.79L342.55 207.41L342.23 207.02L341.92 206.62L341.62 206.2L341.34 205.77L341.08 205.33L340.83 204.88L340.6 204.42L340.39 203.95L340.2 203.47L340.02 202.98L339.87 202.49L339.73 201.98L339.61 201.47L339.51 200.95L339.44 200.42L339.38 199.89L339.35 199.35L339.33 198.8L339.33 178.93L312.67 178.93L312.39 178.94L312.12 178.95L311.85 178.98L311.59 179.02L311.32 179.07L311.06 179.12L310.81 179.19L310.56 179.27L310.31 179.36L310.07 179.45L309.83 179.56L309.6 179.67L309.38 179.79L309.15 179.92L308.94 180.06L308.73 180.21L308.53 180.36L308.33 180.53L308.14 180.7L307.95 180.87L307.78 181.05L307.6 181.24L307.44 181.44L307.29 181.64L307.14 181.85L307 182.07L306.87 182.29L306.74 182.51L306.63 182.74L306.52 182.98L306.43 183.22L306.34 183.46L306.26 183.71L306.19 183.96L306.14 184.22L306.09 184.48L306.05 184.75L306.02 185.01L306.01 185.28L306 185.56L306 291.54L339.33 291.54L339.33 258.42L339.35 257.87L339.38 257.33L339.44 256.8L339.51 256.27L339.61 255.75L339.73 255.24L339.87 254.73L340.02 254.24L340.2 253.75L340.39 253.27L340.6 252.8L340.83 252.34L341.08 251.89L341.34 251.45L341.62 251.02L341.92 250.6L342.23 250.2L342.55 249.81L342.9 249.43L343.25 249.06L343.62 248.71L344 248.37L344.4 248.05L344.8 247.74L345.22 247.44L345.65 247.17L346.09 246.9L346.55 246.66L347.01 246.43L347.48 246.22L347.97 246.03L348.46 245.85L348.96 245.7L349.47 245.56L349.98 245.45L350.51 245.35L351.04 245.27L351.57 245.22L352.12 245.18L352.67 245.17L392.67 245.17L393.22 245.18L393.76 245.21L394.3 245.27L394.83 245.34L395.35 245.44L395.87 245.55L396.38 245.69L396.88 245.85L397.37 246.02L397.86 246.21L398.33 246.42L398.79 246.65L399.25 246.89L399.69 247.15L400.12 247.43L400.54 247.73L400.95 248.03L401.34 248.36L401.73 248.7L402.09 249.05L402.45 249.42L402.79 249.8L403.12 250.19L403.43 250.59L403.72 251.01L404 251.44L404.27 251.88L404.51 252.33L404.74 252.79L404.95 253.26L405.15 253.74L405.32 254.23L405.48 254.73L405.61 255.23L405.73 255.75L405.83 256.27L405.9 256.8L405.96 257.33L405.99 257.87L406.01 258.96L406.04 259.5L406.1 260.04L406.17 260.57L406.27 261.09L406.39 261.6L406.52 262.11L406.68 262.6L406.85 263.09L407.05 263.57L407.26 264.04L407.49 264.51L407.73 264.96L408 265.4L408.28 265.82L408.57 266.24L408.88 266.65L409.21 267.04L409.55 267.42L409.91 267.78L410.27 268.14L410.66 268.48L411.05 268.8L411.46 269.11L411.88 269.4L412.31 269.68L412.75 269.94L413.21 270.19L413.67 270.41L414.14 270.62L414.63 270.82L415.12 270.99L415.62 271.14L416.13 271.28L416.65 271.4L417.17 271.49L417.7 271.57L418.24 271.62L418.78 271.65L419.33 271.66L472.67 271.66L473.22 271.68L473.76 271.71L474.3 271.76L474.83 271.84L475.35 271.93L475.87 272.05L476.38 272.19L476.88 272.34L477.37 272.51L477.86 272.71L478.33 272.92L478.79 273.14L479.25 273.39L479.69 273.65L480.12 273.93L480.54 274.22L480.95 274.53L481.34 274.85L481.73 275.19L482.09 275.54L482.45 275.91L482.79 276.29L483.12 276.68L483.43 277.09L483.72 277.51L484 277.93L484.27 278.37L484.51 278.82L484.74 279.29L484.95 279.76L485.15 280.24L485.32 280.73L485.48 281.22L485.61 281.73L485.73 282.24L485.83 282.76L485.9 283.29L485.96 283.83L485.99 284.37L486 284.91L486 337.9L485.99 338.45L485.95 338.99L485.9 339.52L485.82 340.05L485.72 340.57L485.6 341.08L485.47 341.59L485.31 342.08L485.14 342.57L484.94 343.05L484.73 343.52L484.5 343.98L484.25 344.43L483.99 344.87L483.71 345.3L483.42 345.72L483.1 346.12L482.78 346.51L482.44 346.89L482.08 347.26L481.71 347.61L481.33 347.95L480.94 348.27L480.53 348.58L480.11 348.88L479.68 349.15L479.24 349.42L478.79 349.66L478.32 349.89L477.85 350.1L477.37 350.29L476.88 350.47L476.38 350.62L475.87 350.76L475.35 350.87L474.83 350.97L474.3 351.05L473.76 351.1L473.22 351.14L472.67 351.15L352.67 351.15L352.12 351.14L351.57 351.1L351.04 351.05L350.51 350.97L349.98 350.87L349.47 350.76L348.96 350.62L348.46 350.47L347.97 350.29L347.48 350.1L347.01 349.89L346.55 349.66L346.09 349.42L345.65 349.15L345.22 348.88L344.8 348.58L344.4 348.27L344 347.95L343.62 347.61L343.25 347.26L342.9 346.89L342.55 346.51L342.23 346.12L341.92 345.72L341.62 345.3L341.34 344.87L341.08 344.43L340.83 343.98L340.6 343.52L340.39 343.05L340.2 342.57L340.02 342.08L339.87 341.59L339.73 341.08L339.61 340.57L339.51 340.05L339.44 339.52L339.38 338.99L339.35 338.45L339.33 337.9L339.33 304.78L306 304.78L306 410.76L306.01 411.04L306.02 411.31L306.05 411.57L306.09 411.84L306.14 412.1L306.19 412.36L306.26 412.61L306.34 412.86L306.43 413.1L306.52 413.34L306.63 413.58L306.74 413.81L306.87 414.03L307 414.25L307.14 414.47L307.29 414.68L307.44 414.88L307.6 415.08L307.78 415.27L307.95 415.45L308.14 415.62L308.33 415.79L308.53 415.96L308.73 416.11L308.94 416.26L309.15 416.4L309.38 416.53L309.6 416.65L309.83 416.76L310.07 416.87L310.31 416.96L310.56 417.05L310.81 417.13L311.06 417.2L311.32 417.25L311.59 417.3L311.85 417.34L312.12 417.37L312.39 417.38L312.67 417.39L339.33 417.39L339.33 397.52L339.35 396.97L339.38 396.43L339.44 395.9L339.51 395.37L339.61 394.85L339.73 394.34L339.87 393.83L340.02 393.34L340.2 392.85L340.39 392.37L340.6 391.9L340.83 391.44L341.08 390.99L341.34 390.55L341.62 390.12L341.92 389.7L342.23 389.3L342.55 388.91L342.9 388.53L343.25 388.16L343.62 387.81L344 387.47L344.4 387.15L344.8 386.84L345.22 386.54L345.65 386.27L346.09 386L346.55 385.76L347.01 385.53L347.48 385.32L347.97 385.13L348.46 384.95L348.96 384.8L349.47 384.66L349.98 384.55L350.51 384.45L351.04 384.37L351.57 384.32L352.12 384.28L352.67 384.27L392.67 384.27L393.22 384.28L393.76 384.31L394.3 384.37L394.83 384.44L395.35 384.54L395.87 384.65L396.38 384.79L396.88 384.94L397.37 385.12L397.86 385.31L398.33 385.52L398.79 385.75L399.25 385.99L399.69 386.25L400.12 386.53L400.54 386.83L400.95 387.13L401.34 387.46L401.73 387.8L402.09 388.15L402.45 388.52L402.79 388.9L403.12 389.29L403.43 389.69L403.72 390.11L404 390.54L404.27 390.98L404.51 391.43L404.74 391.89L404.95 392.36L405.15 392.84L405.32 393.33L405.48 393.83L405.61 394.33L405.73 394.85L405.83 395.37L405.9 395.9L405.96 396.43L405.99 396.97L406.01 398.06L406.04 398.6L406.1 399.14L406.17 399.67L406.27 400.19L406.39 400.7L406.52 401.21L406.68 401.7L406.85 402.19L407.05 402.67L407.26 403.14L407.49 403.6L407.73 404.06L408 404.5L408.28 404.92L408.57 405.34L408.88 405.75L409.21 406.14L409.55 406.52L409.91 406.88L410.27 407.24L410.66 407.58L411.05 407.9L411.46 408.21L411.88 408.5L412.31 408.78L412.75 409.04L413.21 409.29L413.67 409.51L414.14 409.72L414.63 409.92L415.12 410.09L415.62 410.24L416.13 410.38L416.65 410.5L417.17 410.59L417.7 410.67L418.24 410.72L418.78 410.75L419.33 410.76L472.67 410.76L473.22 410.78L473.76 410.81L474.3 410.86L474.83 410.94L475.35 411.03L475.87 411.15L476.38 411.29L476.88 411.44L477.37 411.61L477.86 411.81L478.33 412.02L478.79 412.24L479.25 412.49L479.69 412.75L480.12 413.03L480.54 413.32L480.95 413.63L481.34 413.95L481.73 414.29L482.09 414.64L482.45 415.01L482.79 415.39L483.12 415.78L483.43 416.19L483.72 416.61L484 417.03L484.27 417.47L484.51 417.92L484.74 418.38L484.95 418.86L485.15 419.34L485.32 419.82L485.48 420.32L485.61 420.83L485.73 421.34L485.83 421.86L485.9 422.39L485.96 422.93L485.99 423.47L486 424.01L486 477L485.99 477.55L485.95 478.09L485.9 478.62L485.82 479.15L485.72 479.67L485.6 480.18L485.47 480.69L485.31 481.18L485.14 481.67L484.94 482.15L484.73 482.62L484.5 483.08L484.25 483.53L483.99 483.97L483.71 484.4L483.42 484.82L483.1 485.22L482.78 485.61L482.44 485.99L482.08 486.36L481.71 486.71L481.33 487.05L480.94 487.37L480.53 487.68L480.11 487.98L479.68 488.25L479.24 488.51L478.79 488.76L478.32 488.99L477.85 489.2L477.37 489.39L476.88 489.57L476.38 489.72L475.87 489.86L475.35 489.97L474.83 490.07L474.3 490.15L473.76 490.2L473.22 490.24L472.67 490.25L352.67 490.25L352.12 490.24L351.57 490.2L351.04 490.15L350.51 490.07L349.98 489.97L349.47 489.86L348.96 489.72L348.46 489.57L347.97 489.39L347.48 489.2L347.01 488.99L346.55 488.76L346.09 488.51L345.65 488.25L345.22 487.98L344.8 487.68L344.4 487.37L344 487.05L343.62 486.71L343.25 486.36L342.9 485.99L342.55 485.61L342.23 485.22L341.92 484.82L341.62 484.4L341.34 483.97L341.08 483.53L340.83 483.08L340.6 482.62L340.39 482.15L340.2 481.67L340.02 481.18L339.87 480.69L339.73 480.18L339.61 479.67L339.51 479.15L339.44 478.62L339.38 478.09L339.35 477.55L339.33 477L339.33 430.64L312.67 430.64L311.84 430.62L311.03 430.57L310.22 430.49L309.42 430.38L308.64 430.23L307.86 430.06L307.1 429.86L306.35 429.62L305.61 429.36L304.88 429.07L304.17 428.76L303.48 428.42L302.8 428.05L302.13 427.66L301.48 427.24L300.85 426.8L300.24 426.34L299.65 425.85L299.08 425.34L298.52 424.82L297.99 424.27L297.48 423.7L296.99 423.11L296.53 422.5L296.08 421.87L295.66 421.23L295.27 420.57L294.9 419.9L294.56 419.21L294.24 418.5L293.95 417.78L293.69 417.05L293.45 416.3L293.25 415.54L293.07 414.77L292.93 413.99L292.81 413.2L292.73 412.39L292.68 411.58L292.67 410.76L292.67 304.78L272.67 304.78L272.39 304.78L272.12 304.76L271.85 304.73L271.59 304.7L271.32 304.65L271.06 304.59L270.81 304.52L270.56 304.45L270.31 304.36L270.07 304.26L269.83 304.16L269.6 304.04L269.38 303.92L269.15 303.79L268.94 303.65L268.73 303.51L268.53 303.35L268.33 303.19L268.14 303.02L267.95 302.84L267.78 302.66L267.6 302.47L267.44 302.27L267.29 302.07L267.14 301.86L267 301.65L266.87 301.43L266.74 301.2L266.63 300.97L266.52 300.74L266.43 300.5L266.34 300.25L266.26 300L266.19 299.75L266.14 299.49L266.09 299.23L266.05 298.97L266.02 298.7L266.01 298.43L266 298.16L266.01 297.89L266.02 297.62L266.05 297.35L266.09 297.09L266.14 296.83L266.19 296.57L266.26 296.32L266.34 296.07L266.43 295.82L266.52 295.58L266.63 295.35L266.74 295.12L266.87 294.89L267 294.67L267.14 294.46L267.29 294.25L267.44 294.05L267.6 293.85L267.78 293.66L267.95 293.48L268.14 293.3L268.33 293.13L268.53 292.97L268.73 292.81L268.94 292.67L269.15 292.53L269.38 292.4L269.6 292.28L269.83 292.16L270.07 292.06L270.31 291.96L270.56 291.87L270.81 291.8L271.06 291.73L271.32 291.67L271.59 291.62L271.85 291.59L272.12 291.56L272.39 291.54L272.67 291.54L292.67 291.54L292.67 185.56L292.68 184.74L292.73 183.93L292.81 183.12L292.93 182.33L293.07 181.55L293.25 180.78L293.45 180.02L293.69 179.27L293.95 178.54L294.24 177.82L294.56 177.11L294.9 176.42L295.27 175.75L295.66 175.09L296.08 174.45L296.53 173.82L296.99 173.21L297.48 172.62L297.99 172.05L298.52 171.5L299.08 170.98L299.65 170.47L300.24 169.98L300.85 169.52L301.48 169.08L302.13 168.66L302.8 168.27L303.48 167.9L304.17 167.56L304.88 167.25L305.61 166.96L306.35 166.7L307.1 166.46L307.86 166.26L308.64 166.09L309.42 165.94L310.22 165.83L311.03 165.75L311.84 165.7L312.67 165.68L339.33 165.68L339.33 119.32L339.35 118.77L339.38 118.23L339.44 117.7L339.51 117.17L339.61 116.65L339.73 116.14L339.87 115.63L340.02 115.14L340.2 114.65L340.39 114.17L340.6 113.7L340.83 113.24L341.08 112.79L341.34 112.35L341.62 111.92L341.92 111.5L342.23 111.1L342.55 110.71L342.9 110.33L343.25 109.96L343.62 109.61L344 109.27L344.4 108.95L344.8 108.64L345.22 108.34L345.65 108.07L346.09 107.81L346.55 107.56L347.01 107.33L347.48 107.12L347.97 106.93L348.46 106.75L348.96 106.6L349.47 106.46L349.98 106.35L350.51 106.25L351.04 106.17L351.57 106.12L352.12 106.08L352.67 106.07L392.67 106.07L393.22 106.08L393.76 106.11ZM363.41 457.65L362.27 458.26L361.29 459.07L360.47 460.05L359.86 461.18L359.47 462.42L359.33 463.75L359.47 465.09L359.86 466.33L360.47 467.46L361.29 468.44L362.27 469.25L363.41 469.86L364.66 470.24L366 470.38L367.34 470.24L368.59 469.86L369.73 469.25L370.71 468.44L371.53 467.46L372.14 466.33L372.53 465.09L372.67 463.75L372.53 462.42L372.14 461.18L371.53 460.05L370.71 459.07L369.73 458.26L368.59 457.65L367.34 457.27L366 457.13L364.66 457.27L363.41 457.65ZM363.41 431.16L362.27 431.77L361.29 432.58L360.47 433.56L359.86 434.68L359.47 435.92L359.33 437.26L359.47 438.59L359.86 439.84L360.47 440.96L361.29 441.94L362.27 442.75L363.41 443.36L364.66 443.75L366 443.88L367.34 443.75L368.59 443.36L369.73 442.75L370.71 441.94L371.53 440.96L372.14 439.84L372.53 438.59L372.67 437.26L372.53 435.92L372.14 434.68L371.53 433.56L370.71 432.58L369.73 431.77L368.59 431.16L367.34 430.77L366 430.64L364.66 430.77L363.41 431.16ZM252.62 378.16L252.47 378.7L252.23 379.26L251.89 379.84L251.46 380.44L250.93 381.05L250.31 381.67L249.59 382.3L248.78 382.94L247.88 383.6L246.88 384.25L245.79 384.91L244.61 385.57L243.34 386.24L241.97 386.9L240.52 387.55L238.97 388.2L237.33 388.85L235.61 389.49L233.79 390.11L231.89 390.72L229.89 391.32L227.81 391.9L225.64 392.46L223.39 393.01L221.04 393.53L218.61 394.03L216.1 394.5L213.5 394.94L210.81 395.36L208.04 395.75L205.18 396.1L202.24 396.42L199.21 396.7L196.11 396.94L192.92 397.14L189.64 397.3L186.29 397.42L182.85 397.49L179.33 397.52L175.82 397.49L172.38 397.42L169.02 397.3L165.75 397.14L162.56 396.94L159.45 396.7L156.43 396.42L153.49 396.1L150.63 395.75L147.86 395.36L145.17 394.94L142.57 394.5L140.05 394.03L137.62 393.53L135.28 393.01L133.02 392.46L130.85 391.9L128.77 391.32L126.78 390.72L124.87 390.11L123.06 389.49L121.33 388.85L119.7 388.2L118.15 387.55L116.69 386.9L115.33 386.24L114.05 385.57L112.87 384.91L111.78 384.25L110.79 383.6L109.88 382.94L109.07 382.3L108.36 381.67L107.73 381.05L107.2 380.44L106.77 379.84L106.44 379.26L106.19 378.7L106.05 378.16L106 377.65L106 343.09L107.24 343.81L108.52 344.5L109.84 345.19L111.21 345.85L112.63 346.5L114.08 347.13L115.57 347.74L117.1 348.33L118.67 348.91L120.27 349.46L121.91 350L123.59 350.53L125.29 351.03L127.03 351.52L128.8 351.99L130.59 352.44L132.42 352.87L134.27 353.28L136.14 353.68L138.04 354.06L139.97 354.42L141.91 354.76L143.88 355.08L145.87 355.39L147.87 355.68L149.89 355.95L151.93 356.2L153.98 356.43L156.05 356.64L158.13 356.84L160.22 357.02L162.32 357.18L164.42 357.32L166.54 357.44L168.66 357.54L170.79 357.62L172.92 357.69L175.06 357.74L177.2 357.76L179.33 357.77L181.47 357.76L183.61 357.74L185.74 357.69L187.88 357.62L190 357.54L192.13 357.44L194.24 357.32L196.35 357.18L198.45 357.02L200.54 356.84L202.62 356.64L204.69 356.43L206.74 356.2L208.77 355.95L210.8 355.68L212.8 355.39L214.79 355.08L216.75 354.76L218.7 354.42L220.62 354.06L222.52 353.68L224.4 353.28L226.25 352.87L228.07 352.44L229.87 351.99L231.64 351.52L233.38 351.03L235.08 350.53L236.75 350L238.39 349.46L240 348.91L241.57 348.33L243.1 347.74L244.59 347.13L246.04 346.5L247.45 345.85L248.82 345.19L250.15 344.5L251.43 343.81L252.67 343.09L252.67 377.65L252.62 378.16ZM123.41 364.92L122.27 365.53L121.29 366.34L120.47 367.32L119.86 368.44L119.47 369.69L119.33 371.02L119.47 372.36L119.86 373.6L120.47 374.73L121.29 375.71L122.27 376.51L123.41 377.12L124.66 377.51L126 377.65L127.34 377.51L128.59 377.12L129.73 376.51L130.71 375.71L131.53 374.73L132.14 373.6L132.53 372.36L132.67 371.02L132.53 369.69L132.14 368.44L131.53 367.32L130.71 366.34L129.73 365.53L128.59 364.92L127.34 364.53L126 364.4L124.66 364.53L123.41 364.92ZM252.62 325.17L252.47 325.71L252.23 326.27L251.89 326.85L251.46 327.45L250.93 328.05L250.31 328.68L249.59 329.31L248.78 329.95L247.88 330.6L246.88 331.26L245.79 331.92L244.61 332.58L243.34 333.25L241.97 333.91L240.52 334.56L238.97 335.21L237.33 335.86L235.61 336.49L233.79 337.12L231.89 337.73L229.89 338.33L227.81 338.91L225.64 339.47L223.39 340.02L221.04 340.54L218.61 341.04L216.1 341.51L213.5 341.95L210.81 342.37L208.04 342.75L205.18 343.11L202.24 343.42L199.21 343.71L196.11 343.95L192.92 344.15L189.64 344.31L186.29 344.43L182.85 344.5L179.33 344.53L175.82 344.5L172.38 344.43L169.02 344.31L165.75 344.15L162.56 343.95L159.45 343.71L156.43 343.42L153.49 343.11L150.63 342.75L147.86 342.37L145.17 341.95L142.57 341.51L140.05 341.04L137.62 340.54L135.28 340.02L133.02 339.47L130.85 338.91L128.77 338.33L126.78 337.73L124.87 337.12L123.06 336.49L121.33 335.86L119.7 335.21L118.15 334.56L116.69 333.91L115.33 333.25L114.05 332.58L112.87 331.92L111.78 331.26L110.79 330.6L109.88 329.95L109.07 329.31L108.36 328.68L107.73 328.05L107.2 327.45L106.77 326.85L106.44 326.27L106.19 325.71L106.05 325.17L106 324.66L106 290.1L107.24 290.82L108.52 291.51L109.84 292.2L111.21 292.86L112.63 293.51L114.08 294.14L115.57 294.75L117.1 295.34L118.67 295.92L120.27 296.47L121.91 297.01L123.59 297.54L125.29 298.04L127.03 298.53L128.8 299L130.59 299.45L132.42 299.88L134.27 300.29L136.14 300.69L138.04 301.07L139.97 301.43L141.91 301.77L143.88 302.09L145.87 302.4L147.87 302.69L149.89 302.96L151.93 303.21L153.98 303.44L156.05 303.65L158.13 303.85L160.22 304.03L162.32 304.18L164.42 304.33L166.54 304.45L168.66 304.55L170.79 304.63L172.92 304.7L175.06 304.75L177.2 304.77L179.33 304.78L181.47 304.77L183.61 304.75L185.74 304.7L187.88 304.63L190 304.55L192.13 304.45L194.24 304.33L196.35 304.18L198.45 304.03L200.54 303.85L202.62 303.65L204.69 303.44L206.74 303.21L208.77 302.96L210.8 302.69L212.8 302.4L214.79 302.09L216.75 301.77L218.7 301.43L220.62 301.07L222.52 300.69L224.4 300.29L226.25 299.88L228.07 299.45L229.87 299L231.64 298.53L233.38 298.04L235.08 297.54L236.75 297.01L238.39 296.47L240 295.92L241.57 295.34L243.1 294.75L244.59 294.14L246.04 293.51L247.45 292.86L248.82 292.2L250.15 291.51L251.43 290.82L252.67 290.1L252.67 324.66L252.62 325.17ZM362.27 319.16L361.29 319.97L360.47 320.95L359.86 322.08L359.47 323.32L359.33 324.66L359.47 325.99L359.86 327.23L360.47 328.36L361.29 329.34L362.27 330.15L363.41 330.76L364.66 331.14L366 331.28L367.34 331.14L368.59 330.76L369.73 330.15L370.71 329.34L371.53 328.36L372.14 327.23L372.53 325.99L372.67 324.66L372.53 323.32L372.14 322.08L371.53 320.95L370.71 319.97L369.73 319.16L368.59 318.55L367.34 318.17L366 318.03L364.66 318.17L363.41 318.55L362.27 319.16ZM123.41 311.93L122.27 312.54L121.29 313.35L120.47 314.33L119.86 315.45L119.47 316.7L119.33 318.03L119.47 319.37L119.86 320.61L120.47 321.73L121.29 322.72L122.27 323.52L123.41 324.13L124.66 324.52L126 324.66L127.34 324.52L128.59 324.13L129.73 323.52L130.71 322.72L131.53 321.73L132.14 320.61L132.53 319.37L132.67 318.03L132.53 316.7L132.14 315.45L131.53 314.33L130.71 313.35L129.73 312.54L128.59 311.93L127.34 311.54L126 311.41L124.66 311.54L123.41 311.93ZM363.41 292.06L362.27 292.67L361.29 293.48L360.47 294.46L359.86 295.58L359.47 296.83L359.33 298.16L359.47 299.49L359.86 300.74L360.47 301.86L361.29 302.84L362.27 303.65L363.41 304.26L364.66 304.65L366 304.78L367.34 304.65L368.59 304.26L369.73 303.65L370.71 302.84L371.53 301.86L372.14 300.74L372.53 299.49L372.67 298.16L372.53 296.83L372.14 295.58L371.53 294.46L370.71 293.48L369.73 292.67L368.59 292.06L367.34 291.67L366 291.54L364.66 291.67L363.41 292.06ZM252.62 272.18L252.47 272.72L252.23 273.28L251.89 273.86L251.46 274.45L250.93 275.06L250.31 275.69L249.59 276.32L248.78 276.96L247.88 277.61L246.88 278.27L245.79 278.93L244.61 279.59L243.34 280.25L241.97 280.92L240.52 281.57L238.97 282.22L237.33 282.87L235.61 283.5L233.79 284.13L231.89 284.74L229.89 285.34L227.81 285.92L225.64 286.48L223.39 287.03L221.04 287.55L218.61 288.05L216.1 288.52L213.5 288.96L210.81 289.38L208.04 289.76L205.18 290.12L202.24 290.43L199.21 290.72L196.11 290.96L192.92 291.16L189.64 291.32L186.29 291.44L182.85 291.51L179.33 291.54L175.82 291.51L172.38 291.44L169.02 291.32L165.75 291.16L162.56 290.96L159.45 290.72L156.43 290.43L153.49 290.12L150.63 289.76L147.86 289.38L145.17 288.96L142.57 288.52L140.05 288.05L137.62 287.55L135.28 287.03L133.02 286.48L130.85 285.92L128.77 285.34L126.78 284.74L124.87 284.13L123.06 283.5L121.33 282.87L119.7 282.22L118.15 281.57L116.69 280.92L115.33 280.25L114.05 279.59L112.87 278.93L111.78 278.27L110.79 277.61L109.88 276.96L109.07 276.32L108.36 275.69L107.73 275.06L107.2 274.45L106.77 273.86L106.44 273.28L106.19 272.72L106.05 272.18L106 271.66L106 235.37L107.25 236.17L108.55 236.95L109.89 237.7L111.28 238.44L112.7 239.16L114.17 239.86L115.68 240.54L117.23 241.21L118.81 241.85L120.43 242.47L122.09 243.07L123.78 243.66L125.5 244.22L127.25 244.77L129.03 245.29L130.84 245.79L132.67 246.28L134.53 246.74L136.42 247.19L138.33 247.61L140.26 248.02L142.21 248.4L144.18 248.76L146.16 249.11L148.17 249.43L150.19 249.73L152.22 250.02L154.27 250.28L156.32 250.52L158.39 250.74L160.47 250.94L162.55 251.12L164.64 251.28L166.73 251.41L168.83 251.53L170.93 251.62L173.03 251.7L175.14 251.75L177.24 251.78L179.33 251.79L181.43 251.78L183.53 251.75L185.63 251.7L187.73 251.62L189.83 251.53L191.93 251.41L194.03 251.28L196.12 251.12L198.2 250.94L200.28 250.74L202.34 250.52L204.4 250.28L206.45 250.02L208.48 249.73L210.5 249.43L212.5 249.11L214.49 248.76L216.46 248.4L218.41 248.02L220.34 247.61L222.25 247.19L224.13 246.74L225.99 246.28L227.83 245.79L229.64 245.29L231.42 244.77L233.17 244.22L234.89 243.66L236.58 243.07L238.23 242.47L239.85 241.85L241.44 241.21L242.98 240.54L244.49 239.86L245.96 239.16L247.39 238.44L248.78 237.7L250.12 236.95L251.42 236.17L252.67 235.37L252.67 271.66L252.62 272.18ZM123.41 258.94L122.27 259.55L121.29 260.36L120.47 261.34L119.86 262.46L119.47 263.71L119.33 265.04L119.47 266.38L119.86 267.62L120.47 268.74L121.29 269.72L122.27 270.53L123.41 271.14L124.66 271.53L126 271.66L127.34 271.53L128.59 271.14L129.73 270.53L130.71 269.72L131.53 268.74L132.14 267.62L132.53 266.38L132.67 265.04L132.53 263.71L132.14 262.46L131.53 261.34L130.71 260.36L129.73 259.55L128.59 258.94L127.34 258.55L126 258.42L124.66 258.55L123.41 258.94ZM185.35 192.26L188.31 192.35L191.23 192.48L194.11 192.65L196.96 192.85L199.76 193.09L202.51 193.36L205.22 193.67L207.88 194L210.48 194.37L213.03 194.77L215.53 195.2L217.96 195.65L220.33 196.14L222.64 196.65L224.88 197.19L227.06 197.76L229.16 198.35L231.19 198.97L233.14 199.61L235.01 200.28L236.81 200.96L238.52 201.67L240.14 202.4L241.68 203.15L243.13 203.92L244.48 204.71L245.74 205.51L246.9 206.34L247.97 207.18L248.93 208.03L249.79 208.91L250.54 209.79L251.18 210.69L251.71 211.6L252.12 212.53L252.42 213.46L252.61 214.41L252.67 215.36L252.61 216.32L252.42 217.26L252.12 218.2L251.71 219.12L251.18 220.03L250.54 220.93L249.79 221.82L248.93 222.69L247.97 223.55L246.9 224.39L245.74 225.21L244.48 226.02L243.13 226.8L241.68 227.57L240.14 228.32L238.52 229.05L236.81 229.76L235.01 230.45L233.14 231.11L231.19 231.76L229.16 232.37L227.06 232.97L224.88 233.53L222.64 234.07L220.33 234.59L217.96 235.07L215.53 235.53L213.03 235.96L210.48 236.36L207.88 236.72L205.22 237.06L202.51 237.36L199.76 237.63L196.96 237.87L194.11 238.07L191.23 238.24L188.31 238.37L185.35 238.47L182.36 238.53L179.33 238.55L176.31 238.53L173.32 238.47L170.36 238.37L167.44 238.24L164.55 238.07L161.71 237.87L158.91 237.63L156.15 237.36L153.45 237.06L150.79 236.72L148.18 236.36L145.63 235.96L143.14 235.53L140.7 235.07L138.33 234.59L136.02 234.07L133.78 233.53L131.61 232.97L129.51 232.37L127.48 231.76L125.53 231.11L123.65 230.45L121.86 229.76L120.15 229.05L118.52 228.32L116.99 227.57L115.54 226.8L114.19 226.02L112.93 225.21L111.76 224.39L110.7 223.55L109.74 222.69L108.88 221.82L108.13 220.93L107.49 220.03L106.96 219.12L106.54 218.2L106.24 217.26L106.06 216.32L106 215.36L106.06 214.41L106.24 213.46L106.54 212.53L106.96 211.6L107.49 210.69L108.13 209.79L108.88 208.91L109.74 208.03L110.7 207.18L111.76 206.34L112.93 205.51L114.19 204.71L115.54 203.92L116.99 203.15L118.52 202.4L120.15 201.67L121.86 200.96L123.65 200.28L125.53 199.61L127.48 198.97L129.51 198.35L131.61 197.76L133.78 197.19L136.02 196.65L138.33 196.14L140.7 195.65L143.14 195.2L145.63 194.77L148.18 194.37L150.79 194L153.45 193.67L156.15 193.36L158.91 193.09L161.71 192.85L164.55 192.65L167.44 192.48L170.36 192.35L173.32 192.26L176.31 192.2L179.33 192.18L182.36 192.2L185.35 192.26ZM363.41 179.45L362.27 180.06L361.29 180.87L360.47 181.85L359.86 182.98L359.47 184.22L359.33 185.56L359.47 186.89L359.86 188.13L360.47 189.26L361.29 190.24L362.27 191.05L363.41 191.66L364.66 192.04L366 192.18L367.34 192.04L368.59 191.66L369.73 191.05L370.71 190.24L371.53 189.26L372.14 188.13L372.53 186.89L372.67 185.56L372.53 184.22L372.14 182.98L371.53 181.85L370.71 180.87L369.73 180.06L368.59 179.45L367.34 179.07L366 178.93L364.66 179.07L363.41 179.45ZM363.41 152.96L362.27 153.57L361.29 154.38L360.47 155.36L359.86 156.48L359.47 157.73L359.33 159.06L359.47 160.4L359.86 161.64L360.47 162.76L361.29 163.74L362.27 164.55L363.41 165.16L364.66 165.55L366 165.68L367.34 165.55L368.59 165.16L369.73 164.55L370.71 163.74L371.53 162.76L372.14 161.64L372.53 160.4L372.67 159.06L372.53 157.73L372.14 156.48L371.53 155.36L370.71 154.38L369.73 153.57L368.59 152.96L367.34 152.57L366 152.44L364.66 152.57L363.41 152.96Z" id="fjDcwgfaF"></path></defs><g><g><g><use xlink:href="#a1UhDIohO3" opacity="1" fill="url(#gradiente4dNtbTsp)"></use><g><use xlink:href="#a1UhDIohO3" opacity="1" fill-opacity="0" stroke="#abbcff" stroke-width="30" stroke-opacity="1"></use></g></g><g><use xlink:href="#fjDcwgfaF" opacity="1" fill="#8ba4ff" fill-opacity="1"></use><g><use xlink:href="#fjDcwgfaF" opacity="1" fill-opacity="0" stroke="#000000" stroke-width="1" stroke-opacity="0"></use></g></g></g></g></svg>