<svg width="70" height="70" viewBox="0 0 70 70" fill="none" xmlns="http://www.w3.org/2000/svg">
<rect width="70" height="70" rx="10" fill="white"/>
<g filter="url(#filter0_b)">
<rect width="70" height="70" rx="8.34783" fill="url(#paint0_linear)" fill-opacity="0.15"/>
<rect x="2" y="2" width="66" height="66" rx="6.34783" stroke="#4D74FF" stroke-opacity="0.4" stroke-width="4"/>
</g>
<mask id="path-4-inside-1" fill="white">
<path fill-rule="evenodd" clip-rule="evenodd" d="M36.5364 30.8718C35.698 29.4197 33.602 29.4197 32.7635 30.8718L25.9724 42.6344C25.134 44.0865 26.182 45.9017 27.8589 45.9017L30.1 45.9017L30.1 51.6435C30.1 54.0495 32.0504 56 34.4565 56L34.8435 56C37.2495 56 39.2 54.0495 39.2 51.6435L39.2 45.9017L41.4411 45.9017C43.1179 45.9017 44.1659 44.0865 43.3275 42.6344L36.5364 30.8718Z"/>
</mask>
<path fill-rule="evenodd" clip-rule="evenodd" d="M36.5364 30.8718C35.698 29.4197 33.602 29.4197 32.7635 30.8718L25.9724 42.6344C25.134 44.0865 26.182 45.9017 27.8589 45.9017L30.1 45.9017L30.1 51.6435C30.1 54.0495 32.0504 56 34.4565 56L34.8435 56C37.2495 56 39.2 54.0495 39.2 51.6435L39.2 45.9017L41.4411 45.9017C43.1179 45.9017 44.1659 44.0865 43.3275 42.6344L36.5364 30.8718Z" fill="#4D74FF" fill-opacity="0.4"/>
<path d="M32.7635 30.8718L29.2994 28.8718L29.2994 28.8718L32.7635 30.8718ZM36.5364 30.8718L40.0005 28.8718L40.0005 28.8718L36.5364 30.8718ZM25.9724 42.6344L29.4366 44.6344L29.4366 44.6344L25.9724 42.6344ZM27.8589 45.9017L27.8589 41.9017L27.8589 45.9017ZM30.1 45.9017L34.1 45.9017L34.1 41.9017L30.1 41.9017L30.1 45.9017ZM34.4565 56L34.4565 52L34.4565 56ZM34.8435 56L34.8435 60L34.8435 56ZM39.2 51.6435L43.2 51.6435L39.2 51.6435ZM39.2 45.9017L39.2 41.9017L35.2 41.9017L35.2 45.9017L39.2 45.9017ZM41.4411 45.9017L41.4411 41.9017L41.4411 45.9017ZM43.3275 42.6344L39.8634 44.6344L39.8634 44.6344L43.3275 42.6344ZM36.2276 32.8718C35.5265 34.0864 33.7735 34.0863 33.0723 32.8718L40.0005 28.8718C37.6225 24.753 31.6775 24.753 29.2994 28.8718L36.2276 32.8718ZM29.4366 44.6344L36.2277 32.8718L29.2994 28.8718L22.5083 40.6344L29.4366 44.6344ZM27.8589 41.9017C29.2613 41.9017 30.1377 43.4199 29.4366 44.6344L22.5083 40.6344C20.1303 44.7532 23.1028 49.9017 27.8589 49.9017L27.8589 41.9017ZM30.1 41.9017L27.8589 41.9017L27.8589 49.9017L30.1 49.9017L30.1 41.9017ZM34.1 51.6435L34.1 45.9017L26.1 45.9017L26.1 51.6435L34.1 51.6435ZM34.4565 52C34.2596 52 34.1 51.8404 34.1 51.6435L26.1 51.6435C26.1 56.2587 29.8413 60 34.4565 60L34.4565 52ZM34.8435 52L34.4565 52L34.4565 60L34.8435 60L34.8435 52ZM35.2 51.6435C35.2 51.8404 35.0404 52 34.8435 52L34.8435 60C39.4586 60 43.2 56.2587 43.2 51.6435L35.2 51.6435ZM35.2 45.9017L35.2 51.6435L43.2 51.6435L43.2 45.9017L35.2 45.9017ZM41.4411 41.9017L39.2 41.9017L39.2 49.9017L41.4411 49.9017L41.4411 41.9017ZM39.8634 44.6344C39.1622 43.4199 40.0387 41.9017 41.4411 41.9017L41.4411 49.9017C46.1971 49.9017 49.1696 44.7532 46.7916 40.6344L39.8634 44.6344ZM33.0723 32.8718L39.8634 44.6344L46.7916 40.6344L40.0005 28.8718L33.0723 32.8718Z" fill="#4D74FF" fill-opacity="0.4" mask="url(#path-4-inside-1)"/>
<path d="M55.3 32C55.3 33.6569 53.9568 35 52.3 35L48.5 35C46.8431 35 45.5 33.6569 45.5 32L45.5 27.85C45.5 26.1931 44.1568 24.85 42.5 24.85L26.45 24.85C24.7931 24.85 23.45 26.1931 23.45 27.85L23.45 32C23.45 33.6568 22.1068 35 20.45 35L17 35C15.3431 35 14 33.6569 14 32L14 17C14 15.3431 15.3431 14 17 14L52.3 14C53.9568 14 55.3 15.3431 55.3 17L55.3 32Z" fill="#4D74FF" fill-opacity="0.4"/>
<path d="M53.3 32C53.3 32.5523 52.8523 33 52.3 33L48.5 33C47.9477 33 47.5 32.5523 47.5 32L47.5 27.85C47.5 25.0886 45.2614 22.85 42.5 22.85L26.45 22.85C23.6886 22.85 21.45 25.0886 21.45 27.85L21.45 32C21.45 32.5523 21.0023 33 20.45 33L17 33C16.4477 33 16 32.5523 16 32L16 17C16 16.4477 16.4477 16 17 16L52.3 16C52.8523 16 53.3 16.4477 53.3 17L53.3 32Z" stroke="#4D74FF" stroke-opacity="0.4" stroke-width="4"/>
<defs>
<filter id="filter0_b" x="-8.87804" y="-8.87804" width="87.7561" height="87.7561" filterUnits="userSpaceOnUse" color-interpolation-filters="sRGB">
<feFlood flood-opacity="0" result="BackgroundImageFix"/>
<feGaussianBlur in="BackgroundImage" stdDeviation="4.43902"/>
<feComposite in2="SourceAlpha" operator="in" result="effect1_backgroundBlur"/>
<feBlend mode="normal" in="SourceGraphic" in2="effect1_backgroundBlur" result="shape"/>
</filter>
<linearGradient id="paint0_linear" x1="35" y1="0" x2="35" y2="70" gradientUnits="userSpaceOnUse">
<stop stop-color="#4D74FF"/>
<stop offset="1" stop-color="#4D74FF" stop-opacity="0.01"/>
</linearGradient>
</defs>
</svg>
